<?xml version="1.0" encoding="UTF-8" standalone="no"?>
<!DOCTYPE svg PUBLIC "-//W3C//DTD SVG 1.1//EN" "http://www.w3.org/Graphics/SVG/1.1/DTD/svg11.dtd">
<svg width="100%" height="100%" viewBox="0 0 115 148" version="1.1" xmlns="http://www.w3.org/2000/svg" xmlns:xlink="http://www.w3.org/1999/xlink" xml:space="preserve" xmlns:serif="http://www.serif.com/" style="fill-rule:evenodd;clip-rule:evenodd;stroke-linejoin:round;stroke-miterlimit:2;">
    <g transform="matrix(1,0,0,1,-80,-56)">
        <path d="M134.089,201.087C117.041,115.592 155.925,65.583 155.925,65.583C123.697,131.52 151.604,201.087 151.604,201.087L134.089,201.087Z" style="fill:rgb(60,36,21);fill-rule:nonzero;"/>
    </g>
    <g transform="matrix(1,0,0,1,-80,-56)">
        <path d="M105.237,103.974C110.473,116.611 115.264,121.878 120.544,126.367C127.433,132.222 131.054,138.078 131.054,138.078L130.279,148.053C122.666,133.123 120.416,132.186 112.628,122.676C104.84,113.167 105.237,103.974 105.237,103.974Z" style="fill:rgb(60,36,21);fill-rule:nonzero;"/>
    </g>
    <g transform="matrix(1,0,0,1,-80,-56)">
        <path d="M115.95,126.055C105.831,128.24 90.574,123.4 90.574,123.4C101.472,129.724 118.597,129.021 118.597,129.021L115.95,126.055Z" style="fill:rgb(60,36,21);fill-rule:nonzero;"/>
    </g>
    <g transform="matrix(1,0,0,1,-80,-56)">
        <path d="M143.298,103.758C149.12,95.173 163.494,88.118 163.494,88.118C151.254,91.082 139.342,103.443 139.342,103.443L143.298,103.758Z" style="fill:rgb(60,36,21);fill-rule:nonzero;"/>
    </g>
    <g transform="matrix(1,0,0,1,-80,-56)">
        <path d="M150.237,140.989C157.105,133.22 160.395,117.512 160.395,117.512C160.535,130.14 152.947,142.529 152.947,142.529L150.237,140.989Z" style="fill:rgb(60,36,21);fill-rule:nonzero;"/>
    </g>
    <g transform="matrix(1,0,0,1,-80,-56)">
        <path d="M135.023,115.006C134.323,94.159 115.172,68.745 115.172,68.745C140.473,96.463 137.359,107.394 137.359,107.394L135.023,115.006Z" style="fill:rgb(60,36,21);fill-rule:nonzero;"/>
    </g>
    <g transform="matrix(1,0,0,1,-80,-56)">
        <path d="M141.328,160.018C149.552,146.996 157.847,140.482 166.315,132.078C174.783,123.673 183.132,109.736 183.132,109.736C169.933,125.471 159.39,133.271 150.518,140.651C141.646,148.029 140.239,151.177 140.239,151.177L141.328,160.018Z" style="fill:rgb(60,36,21);fill-rule:nonzero;"/>
    </g>
    <g transform="matrix(1,0,0,1,-80,-56)">
        <path d="M151.137,136.985C151.137,139.702 148.942,141.904 146.234,141.904C143.525,141.904 141.328,139.702 141.328,136.985C141.328,134.269 143.525,132.066 146.234,132.066C148.942,132.066 151.137,134.269 151.137,136.985Z" style="fill:rgb(190,118,211);fill-rule:nonzero;"/>
    </g>
    <g transform="matrix(1,0,0,1,-80,-56)">
        <path d="M185.352,104.31C185.352,107.027 183.156,109.228 180.448,109.228C177.738,109.228 175.543,107.027 175.543,104.31C175.543,101.592 177.738,99.391 180.448,99.391C183.156,99.391 185.352,101.592 185.352,104.31Z" style="fill:rgb(190,118,211);fill-rule:nonzero;"/>
    </g>
    <g transform="matrix(1,0,0,1,-80,-56)">
        <path d="M180.915,83.697C180.915,86.414 178.718,88.616 176.01,88.616C173.302,88.616 171.106,86.414 171.106,83.697C171.106,80.981 173.302,78.778 176.01,78.778C178.718,78.778 180.915,80.981 180.915,83.697Z" style="fill:rgb(0,113,173);fill-rule:nonzero;"/>
    </g>
    <g transform="matrix(1,0,0,1,-80,-56)">
        <path d="M135.762,78.7C135.762,81.417 133.567,83.619 130.858,83.619C128.15,83.619 125.954,81.417 125.954,78.7C125.954,75.984 128.15,73.781 130.858,73.781C133.567,73.781 135.762,75.984 135.762,78.7Z" style="fill:rgb(89,116,7);fill-rule:nonzero;"/>
    </g>
    <g transform="matrix(1,0,0,1,-80,-56)">
        <path d="M104.78,105.09C104.78,107.807 102.585,110.009 99.875,110.009C97.167,110.009 94.971,107.807 94.971,105.09C94.971,102.373 97.167,100.171 99.875,100.171C102.585,100.171 104.78,102.373 104.78,105.09Z" style="fill:rgb(253,131,1);fill-rule:nonzero;"/>
    </g>
    <g transform="matrix(1,0,0,1,-80,-56)">
        <path d="M149.425,63.475C149.425,64.489 148.605,65.31 147.595,65.31C146.585,65.31 145.767,64.489 145.767,63.475C145.767,62.461 146.585,61.64 147.595,61.64C148.605,61.64 149.425,62.461 149.425,63.475Z" style="fill:rgb(147,204,82);fill-rule:nonzero;"/>
    </g>
    <g transform="matrix(1,0,0,1,-80,-56)">
        <path d="M126.187,63.982C126.187,64.845 125.49,65.544 124.631,65.544C123.771,65.544 123.073,64.845 123.073,63.982C123.073,63.12 123.771,62.421 124.631,62.421C125.49,62.421 126.187,63.12 126.187,63.982Z" style="fill:rgb(147,204,82);fill-rule:nonzero;"/>
    </g>
    <g transform="matrix(1,0,0,1,-80,-56)">
        <path d="M159.389,104.895C159.389,106.405 158.169,107.628 156.664,107.628C155.159,107.628 153.94,106.405 153.94,104.895C153.94,103.386 155.159,102.162 156.664,102.162C158.169,102.162 159.389,103.386 159.389,104.895Z" style="fill:rgb(0,113,173);fill-rule:nonzero;"/>
    </g>
    <g transform="matrix(1,0,0,1,-80,-56)">
        <path d="M170.599,119.886C170.599,122.603 168.404,124.805 165.696,124.805C162.987,124.805 160.791,122.603 160.791,119.886C160.791,117.169 162.987,114.967 165.696,114.967C168.404,114.967 170.599,117.169 170.599,119.886Z" style="fill:rgb(106,10,120);fill-rule:nonzero;"/>
    </g>
    <g transform="matrix(1,0,0,1,-80,-56)">
        <path d="M158.299,153.772C158.299,156.488 156.104,158.691 153.395,158.691C150.687,158.691 148.49,156.488 148.49,153.772C148.49,151.056 150.687,148.853 153.395,148.853C156.104,148.853 158.299,151.056 158.299,153.772Z" style="fill:rgb(190,118,211);fill-rule:nonzero;"/>
    </g>
    <g transform="matrix(1,0,0,1,-80,-56)">
        <path d="M149.114,115.279C149.114,117.112 147.633,118.598 145.806,118.598C143.979,118.598 142.497,117.112 142.497,115.279C142.497,113.446 143.979,111.961 145.806,111.961C147.633,111.961 149.114,113.446 149.114,115.279Z" style="fill:rgb(44,218,241);fill-rule:nonzero;"/>
    </g>
    <g transform="matrix(1,0,0,1,-80,-56)">
        <path d="M110.638,122.131C110.638,124.34 108.852,126.132 106.648,126.132C104.445,126.132 102.659,124.34 102.659,122.131C102.659,119.92 104.445,118.129 106.648,118.129C108.852,118.129 110.638,119.92 110.638,122.131Z" style="fill:rgb(253,131,1);fill-rule:nonzero;"/>
    </g>
    <g transform="matrix(1,0,0,1,-80,-56)">
        <path d="M161.959,68.745C161.959,70.577 160.478,72.063 158.651,72.063C156.823,72.063 155.342,70.577 155.342,68.745C155.342,66.913 156.823,65.427 158.651,65.427C160.478,65.427 161.959,66.913 161.959,68.745Z" style="fill:rgb(44,218,241);fill-rule:nonzero;"/>
    </g>
    <g transform="matrix(1,0,0,1,-80,-56)">
        <path d="M167.739,89.572C167.739,90.662 166.858,91.544 165.773,91.544C164.688,91.544 163.808,90.662 163.808,89.572C163.808,88.483 164.688,87.601 165.773,87.601C166.858,87.601 167.739,88.483 167.739,89.572Z" style="fill:rgb(28,40,109);fill-rule:nonzero;"/>
    </g>
    <g transform="matrix(1,0,0,1,-80,-56)">
        <path d="M176.341,77.08C176.341,77.931 175.652,78.622 174.804,78.622C173.955,78.622 173.267,77.931 173.267,77.08C173.267,76.228 173.955,75.538 174.804,75.538C175.652,75.538 176.341,76.228 176.341,77.08Z" style="fill:rgb(44,218,241);fill-rule:nonzero;"/>
    </g>
    <g transform="matrix(1,0,0,1,-80,-56)">
        <path d="M119.435,67.554C119.435,68.75 118.467,69.721 117.275,69.721C116.083,69.721 115.115,68.75 115.115,67.554C115.115,66.357 116.083,65.388 117.275,65.388C118.467,65.388 119.435,66.357 119.435,67.554Z" style="fill:rgb(89,116,7);fill-rule:nonzero;"/>
    </g>
    <g transform="matrix(1,0,0,1,-80,-56)">
        <path d="M139.675,96.717C139.675,97.849 138.761,98.766 137.632,98.766C136.504,98.766 135.588,97.849 135.588,96.717C135.588,95.584 136.504,94.667 137.632,94.667C138.761,94.667 139.675,95.584 139.675,96.717Z" style="fill:rgb(137,170,54);fill-rule:nonzero;"/>
    </g>
    <g transform="matrix(1,0,0,1,-80,-56)">
        <path d="M137.729,62.557C137.729,63.667 136.831,64.568 135.725,64.568C134.617,64.568 133.719,63.667 133.719,62.557C133.719,61.448 134.617,60.547 135.725,60.547C136.831,60.547 137.729,61.448 137.729,62.557Z" style="fill:rgb(137,170,54);fill-rule:nonzero;"/>
    </g>
    <g transform="matrix(1,0,0,1,-80,-56)">
        <path d="M156.587,99.117C156.587,100.95 155.106,102.436 153.279,102.436C151.452,102.436 149.971,100.95 149.971,99.117C149.971,97.285 151.452,95.799 153.279,95.799C155.106,95.799 156.587,97.285 156.587,99.117Z" style="fill:rgb(0,113,173);fill-rule:nonzero;"/>
    </g>
    <g transform="matrix(1,0,0,1,-80,-56)">
        <path d="M157.132,125.898C157.132,127.277 156.017,128.397 154.64,128.397C153.265,128.397 152.15,127.277 152.15,125.898C152.15,124.519 153.265,123.4 154.64,123.4C156.017,123.4 157.132,124.519 157.132,125.898Z" style="fill:rgb(106,10,120);fill-rule:nonzero;"/>
    </g>
    <g transform="matrix(1,0,0,1,-80,-56)">
        <path d="M131.364,129.724C131.364,131.104 130.249,132.222 128.873,132.222C127.498,132.222 126.383,131.104 126.383,129.724C126.383,128.343 127.498,127.225 128.873,127.225C130.249,127.225 131.364,128.343 131.364,129.724Z" style="fill:rgb(254,197,14);fill-rule:nonzero;"/>
    </g>
    <g transform="matrix(1,0,0,1,-80,-56)">
        <path d="M108.166,151.664C108.166,153.605 106.598,155.177 104.664,155.177C102.729,155.177 101.161,153.605 101.161,151.664C101.161,149.723 102.729,148.15 104.664,148.15C106.598,148.15 108.166,149.723 108.166,151.664Z" style="fill:rgb(196,2,8);fill-rule:nonzero;"/>
    </g>
    <g transform="matrix(1,0,0,1,-80,-56)">
        <path d="M122.49,161.423C122.49,162.976 121.235,164.234 119.687,164.234C118.14,164.234 116.886,162.976 116.886,161.423C116.886,159.871 118.14,158.613 119.687,158.613C121.235,158.613 122.49,159.871 122.49,161.423Z" style="fill:rgb(255,100,102);fill-rule:nonzero;"/>
    </g>
    <g transform="matrix(1,0,0,1,-80,-56)">
        <path d="M165.54,74.835C165.54,76.216 164.425,77.334 163.048,77.334C161.672,77.334 160.557,76.216 160.557,74.835C160.557,73.456 161.672,72.337 163.048,72.337C164.425,72.337 165.54,73.456 165.54,74.835Z" style="fill:rgb(28,40,109);fill-rule:nonzero;"/>
    </g>
    <g transform="matrix(1,0,0,1,-80,-56)">
        <path d="M190.763,104.583C190.763,105.964 189.646,107.081 188.271,107.081C186.895,107.081 185.78,105.964 185.78,104.583C185.78,103.202 186.895,102.084 188.271,102.084C189.646,102.084 190.763,103.202 190.763,104.583Z" style="fill:rgb(31,43,109);fill-rule:nonzero;"/>
    </g>
    <g transform="matrix(1,0,0,1,-80,-56)">
        <path d="M191.696,121.291C191.696,122.672 190.581,123.79 189.205,123.79C187.828,123.79 186.713,122.672 186.713,121.291C186.713,119.912 187.828,118.793 189.205,118.793C190.581,118.793 191.696,119.912 191.696,121.291Z" style="fill:rgb(255,6,5);fill-rule:nonzero;"/>
    </g>
    <g transform="matrix(1,0,0,1,-80,-56)">
        <path d="M151.176,92.286C151.176,93.666 150.061,94.784 148.686,94.784C147.31,94.784 146.195,93.666 146.195,92.286C146.195,90.906 147.31,89.787 148.686,89.787C150.061,89.787 151.176,90.906 151.176,92.286Z" style="fill:rgb(0,161,202);fill-rule:nonzero;"/>
    </g>
    <g transform="matrix(1,0,0,1,-80,-56)">
        <path d="M106.92,77.646C106.92,79.435 105.473,80.886 103.689,80.886C101.905,80.886 100.46,79.435 100.46,77.646C100.46,75.857 101.905,74.406 103.689,74.406C105.473,74.406 106.92,75.857 106.92,77.646Z" style="fill:rgb(123,162,6);fill-rule:nonzero;"/>
    </g>
    <g transform="matrix(1,0,0,1,-80,-56)">
        <path d="M97.502,89.436C97.502,91.225 96.055,92.676 94.271,92.676C92.487,92.676 91.039,91.225 91.039,89.436C91.039,87.647 92.487,86.196 94.271,86.196C96.055,86.196 97.502,87.647 97.502,89.436Z" style="fill:rgb(216,195,0);fill-rule:nonzero;"/>
    </g>
    <g transform="matrix(1,0,0,1,-80,-56)">
        <path d="M171.495,93.574C171.495,94.955 170.379,96.072 169.004,96.072C167.628,96.072 166.513,94.955 166.513,93.574C166.513,92.193 167.628,91.075 169.004,91.075C170.379,91.075 171.495,92.193 171.495,93.574Z" style="fill:rgb(0,113,173);fill-rule:nonzero;"/>
    </g>
    <g transform="matrix(1,0,0,1,-80,-56)">
        <path d="M157.443,110.673C157.443,111.795 156.538,112.703 155.418,112.703C154.302,112.703 153.395,111.795 153.395,110.673C153.395,109.552 154.302,108.643 155.418,108.643C156.538,108.643 157.443,109.552 157.443,110.673Z" style="fill:rgb(137,170,54);fill-rule:nonzero;"/>
    </g>
    <g transform="matrix(1,0,0,1,-80,-56)">
        <path d="M150.826,125.742C150.826,128.459 148.631,130.661 145.922,130.661C143.214,130.661 141.017,128.459 141.017,125.742C141.017,123.026 143.214,120.823 145.922,120.823C148.631,120.823 150.826,123.026 150.826,125.742Z" style="fill:rgb(106,10,120);fill-rule:nonzero;"/>
    </g>
    <g transform="matrix(1,0,0,1,-80,-56)">
        <path d="M172.779,154.865C172.779,155.771 172.048,156.505 171.145,156.505C170.241,156.505 169.51,155.771 169.51,154.865C169.51,153.959 170.241,153.225 171.145,153.225C172.048,153.225 172.779,153.959 172.779,154.865Z" style="fill:rgb(196,2,8);fill-rule:nonzero;"/>
    </g>
    <g transform="matrix(1,0,0,1,-80,-56)">
        <path d="M162.426,161.423C162.426,162.329 161.693,163.064 160.792,163.064C159.887,163.064 159.156,162.329 159.156,161.423C159.156,160.518 159.887,159.784 160.792,159.784C161.693,159.784 162.426,160.518 162.426,161.423Z" style="fill:rgb(255,100,102);fill-rule:nonzero;"/>
    </g>
    <g transform="matrix(1,0,0,1,-80,-56)">
        <path d="M129.419,162.399C129.419,164.19 127.971,165.641 126.187,165.641C124.403,165.641 122.958,164.19 122.958,162.399C122.958,160.61 124.403,159.159 126.187,159.159C127.971,159.159 129.419,160.61 129.419,162.399Z" style="fill:rgb(254,1,4);fill-rule:nonzero;"/>
    </g>
    <g transform="matrix(1,0,0,1,-80,-56)">
        <path d="M144.365,143.856C144.365,144.762 143.633,145.496 142.731,145.496C141.828,145.496 141.095,144.762 141.095,143.856C141.095,142.95 141.828,142.216 142.731,142.216C143.633,142.216 144.365,142.95 144.365,143.856Z" style="fill:rgb(177,194,59);fill-rule:nonzero;"/>
    </g>
    <g transform="matrix(1,0,0,1,-80,-56)">
        <path d="M118.131,149.165C118.131,150.071 117.398,150.805 116.495,150.805C115.592,150.805 114.861,150.071 114.861,149.165C114.861,148.26 115.592,147.526 116.495,147.526C117.398,147.526 118.131,148.26 118.131,149.165Z" style="fill:rgb(195,0,0);fill-rule:nonzero;"/>
    </g>
    <g transform="matrix(1,0,0,1,-80,-56)">
        <path d="M142.107,89.28C142.107,91.997 139.912,94.199 137.203,94.199C134.495,94.199 132.3,91.997 132.3,89.28C132.3,86.563 134.495,84.361 137.203,84.361C139.912,84.361 142.107,86.563 142.107,89.28Z" style="fill:rgb(195,215,136);fill-rule:nonzero;"/>
    </g>
    <g transform="matrix(1,0,0,1,-80,-56)">
        <path d="M111.047,106.144C111.047,107.266 110.14,108.174 109.022,108.174C107.904,108.174 106.999,107.266 106.999,106.144C106.999,105.023 107.904,104.114 109.022,104.114C110.14,104.114 111.047,105.023 111.047,106.144Z" style="fill:rgb(216,195,0);fill-rule:nonzero;"/>
    </g>
    <g transform="matrix(1,0,0,1,-80,-56)">
        <path d="M101.86,121.76C101.86,122.88 100.954,123.79 99.836,123.79C98.718,123.79 97.813,122.88 97.813,121.76C97.813,120.639 98.718,119.73 99.836,119.73C100.954,119.73 101.86,120.639 101.86,121.76Z" style="fill:rgb(249,130,6);fill-rule:nonzero;"/>
    </g>
    <g transform="matrix(1,0,0,1,-80,-56)">
        <path d="M104.702,145.222C104.702,146.193 103.917,146.979 102.95,146.979C101.983,146.979 101.199,146.193 101.199,145.222C101.199,144.252 101.983,143.467 102.95,143.467C103.917,143.467 104.702,144.252 104.702,145.222Z" style="fill:rgb(195,0,0);fill-rule:nonzero;"/>
    </g>
    <g transform="matrix(1,0,0,1,-80,-56)">
        <path d="M88.16,114.733C88.16,115.704 87.375,116.49 86.408,116.49C85.44,116.49 84.657,115.704 84.657,114.733C84.657,113.762 85.44,112.976 86.408,112.976C87.375,112.976 88.16,113.762 88.16,114.733Z" style="fill:rgb(249,130,6);fill-rule:nonzero;"/>
    </g>
    <g transform="matrix(1,0,0,1,-80,-56)">
        <path d="M112.059,85.61C112.059,88.326 109.863,90.53 107.155,90.53C104.445,90.53 102.25,88.326 102.25,85.61C102.25,82.894 104.445,80.691 107.155,80.691C109.863,80.691 112.059,82.894 112.059,85.61Z" style="fill:rgb(177,194,59);fill-rule:nonzero;"/>
    </g>
    <g transform="matrix(1,0,0,1,-80,-56)">
        <path d="M96.645,98.259C96.645,100.845 94.554,102.943 91.974,102.943C89.395,102.943 87.303,100.845 87.303,98.259C87.303,95.671 89.395,93.574 91.974,93.574C94.554,93.574 96.645,95.671 96.645,98.259Z" style="fill:rgb(253,131,1);fill-rule:nonzero;"/>
    </g>
    <g transform="matrix(1,0,0,1,-80,-56)">
        <path d="M129.34,70.775C129.34,73.492 127.145,75.694 124.436,75.694C121.728,75.694 119.531,73.492 119.531,70.775C119.531,68.059 121.728,65.856 124.436,65.856C127.145,65.856 129.34,68.059 129.34,70.775Z" style="fill:rgb(195,215,136);fill-rule:nonzero;"/>
    </g>
    <g transform="matrix(1,0,0,1,-80,-56)">
        <path d="M127.239,91.622C127.239,94.339 125.044,96.541 122.334,96.541C119.626,96.541 117.43,94.339 117.43,91.622C117.43,88.906 119.626,86.703 122.334,86.703C125.044,86.703 127.239,88.906 127.239,91.622Z" style="fill:rgb(123,162,6);fill-rule:nonzero;"/>
    </g>
    <g transform="matrix(1,0,0,1,-80,-56)">
        <path d="M154.368,65.271C154.368,66.629 153.271,67.73 151.915,67.73C150.562,67.73 149.465,66.629 149.465,65.271C149.465,63.912 150.562,62.811 151.915,62.811C153.271,62.811 154.368,63.912 154.368,65.271Z" style="fill:rgb(11,110,172);fill-rule:nonzero;"/>
    </g>
    <g transform="matrix(1,0,0,1,-80,-56)">
        <path d="M122.295,64.958C122.295,65.756 121.651,66.403 120.855,66.403C120.06,66.403 119.415,65.756 119.415,64.958C119.415,64.161 120.06,63.514 120.855,63.514C121.651,63.514 122.295,64.161 122.295,64.958Z" style="fill:rgb(89,116,7);fill-rule:nonzero;"/>
    </g>
    <g transform="matrix(1,0,0,1,-80,-56)">
        <path d="M151.215,70.658C151.215,73.375 149.02,75.577 146.312,75.577C143.603,75.577 141.407,73.375 141.407,70.658C141.407,67.941 143.603,65.739 146.312,65.739C149.02,65.739 151.215,67.941 151.215,70.658Z" style="fill:rgb(2,164,203);fill-rule:nonzero;"/>
    </g>
    <g transform="matrix(1,0,0,1,-80,-56)">
        <path d="M122.568,82.135C122.568,84.853 120.372,87.054 117.664,87.054C114.955,87.054 112.759,84.853 112.759,82.135C112.759,79.418 114.955,77.217 117.664,77.217C120.372,77.217 122.568,79.418 122.568,82.135Z" style="fill:rgb(89,116,7);fill-rule:nonzero;"/>
    </g>
    <g transform="matrix(1,0,0,1,-80,-56)">
        <path d="M109.45,101.421C109.45,102.865 108.283,104.036 106.844,104.036C105.403,104.036 104.236,102.865 104.236,101.421C104.236,99.976 105.403,98.805 106.844,98.805C108.283,98.805 109.45,99.976 109.45,101.421Z" style="fill:rgb(254,197,14);fill-rule:nonzero;"/>
    </g>
    <g transform="matrix(1,0,0,1,-80,-56)">
        <path d="M122.412,115.318C122.412,118.036 120.217,120.237 117.508,120.237C114.8,120.237 112.603,118.036 112.603,115.318C112.603,112.601 114.8,110.4 117.508,110.4C120.217,110.4 122.412,112.601 122.412,115.318Z" style="fill:rgb(216,195,0);fill-rule:nonzero;"/>
    </g>
    <g transform="matrix(1,0,0,1,-80,-56)">
        <path d="M168.771,82.76C168.771,85.477 166.574,87.679 163.866,87.679C161.157,87.679 158.962,85.477 158.962,82.76C158.962,80.043 161.157,77.841 163.866,77.841C166.574,77.841 168.771,80.043 168.771,82.76Z" style="fill:rgb(44,218,241);fill-rule:nonzero;"/>
    </g>
    <g transform="matrix(1,0,0,1,-80,-56)">
        <path d="M131.481,121.799C131.481,124.516 129.286,126.718 126.578,126.718C123.868,126.718 121.672,124.516 121.672,121.799C121.672,119.082 123.868,116.88 126.578,116.88C129.286,116.88 131.481,119.082 131.481,121.799Z" style="fill:rgb(89,116,7);fill-rule:nonzero;"/>
    </g>
    <g transform="matrix(1,0,0,1,-80,-56)">
        <path d="M109.372,133.667C109.372,136.384 107.177,138.586 104.469,138.586C101.759,138.586 99.564,136.384 99.564,133.667C99.564,130.95 101.759,128.748 104.469,128.748C107.177,128.748 109.372,130.95 109.372,133.667Z" style="fill:rgb(255,6,5);fill-rule:nonzero;"/>
    </g>
    <g transform="matrix(1,0,0,1,-80,-56)">
        <path d="M167.798,109.97C167.798,112.686 165.601,114.889 162.893,114.889C160.184,114.889 157.988,112.686 157.988,109.97C157.988,107.254 160.184,105.051 162.893,105.051C165.601,105.051 167.798,107.254 167.798,109.97Z" style="fill:rgb(190,118,211);fill-rule:nonzero;"/>
    </g>
    <g transform="matrix(1,0,0,1,-80,-56)">
        <path d="M186.324,122.15C186.324,124.867 184.129,127.069 181.421,127.069C178.713,127.069 176.516,124.867 176.516,122.15C176.516,119.433 178.713,117.231 181.421,117.231C184.129,117.231 186.324,119.433 186.324,122.15Z" style="fill:rgb(31,43,109);fill-rule:nonzero;"/>
    </g>
    <g transform="matrix(1,0,0,1,-80,-56)">
        <path d="M183.912,140.108C183.912,142.825 181.716,145.027 179.007,145.027C176.299,145.027 174.102,142.825 174.102,140.108C174.102,137.391 176.299,135.189 179.007,135.189C181.716,135.189 183.912,137.391 183.912,140.108Z" style="fill:rgb(106,10,120);fill-rule:nonzero;"/>
    </g>
    <g transform="matrix(1,0,0,1,-80,-56)">
        <path d="M152.228,162.751C152.228,165.468 150.032,167.67 147.323,167.67C144.615,167.67 142.418,165.468 142.418,162.751C142.418,160.035 144.615,157.832 147.323,157.832C150.032,157.832 152.228,160.035 152.228,162.751Z" style="fill:rgb(255,100,102);fill-rule:nonzero;"/>
    </g>
    <g transform="matrix(1,0,0,1,-80,-56)">
        <path d="M101.938,141.826C101.938,144.543 99.743,146.745 97.034,146.745C94.327,146.745 92.13,144.543 92.13,141.826C92.13,139.109 94.327,136.907 97.034,136.907C99.743,136.907 101.938,139.109 101.938,141.826Z" style="fill:rgb(254,1,4);fill-rule:nonzero;"/>
    </g>
    <g transform="matrix(1,0,0,1,-80,-56)">
        <path d="M117.975,155.021C117.975,157.738 115.778,159.94 113.07,159.94C110.362,159.94 108.166,157.738 108.166,155.021C108.166,152.304 110.362,150.102 113.07,150.102C115.778,150.102 117.975,152.304 117.975,155.021Z" style="fill:rgb(255,6,5);fill-rule:nonzero;"/>
    </g>
    <g transform="matrix(1,0,0,1,-80,-56)">
        <path d="M159,118.09C159,120.807 156.804,123.009 154.096,123.009C151.387,123.009 149.192,120.807 149.192,118.09C149.192,115.374 151.387,113.171 154.096,113.171C156.804,113.171 159,115.374 159,118.09Z" style="fill:rgb(187,107,205);fill-rule:nonzero;"/>
    </g>
    <g transform="matrix(1,0,0,1,-80,-56)">
        <path d="M128.873,153.459C128.873,156.177 126.677,158.378 123.97,158.378C121.261,158.378 119.065,156.177 119.065,153.459C119.065,150.742 121.261,148.541 123.97,148.541C126.677,148.541 128.873,150.742 128.873,153.459Z" style="fill:rgb(196,2,8);fill-rule:nonzero;"/>
    </g>
    <g transform="matrix(1,0,0,1,-80,-56)">
        <path d="M176.438,147.838C176.438,150.555 174.242,152.757 171.534,152.757C168.826,152.757 166.629,150.555 166.629,147.838C166.629,145.121 168.826,142.919 171.534,142.919C174.242,142.919 176.438,145.121 176.438,147.838Z" style="fill:rgb(106,10,120);fill-rule:nonzero;"/>
    </g>
    <g transform="matrix(1,0,0,1,-80,-56)">
        <path d="M158.689,161.853C158.689,163.47 157.382,164.781 155.77,164.781C154.157,164.781 152.851,163.47 152.851,161.853C152.851,160.235 154.157,158.925 155.77,158.925C157.382,158.925 158.689,160.235 158.689,161.853Z" style="fill:rgb(255,6,5);fill-rule:nonzero;"/>
    </g>
    <g transform="matrix(1,0,0,1,-80,-56)">
        <path d="M179.941,130.505C179.941,133.222 177.745,135.423 175.037,135.423C172.329,135.423 170.132,133.222 170.132,130.505C170.132,127.787 172.329,125.586 175.037,125.586C177.745,125.586 179.941,127.787 179.941,130.505Z" style="fill:rgb(106,10,120);fill-rule:nonzero;"/>
    </g>
    <g transform="matrix(1,0,0,1,-80,-56)">
        <path d="M183.988,87.581C183.988,88.714 183.075,89.631 181.945,89.631C180.817,89.631 179.902,88.714 179.902,87.581C179.902,86.449 180.817,85.532 181.945,85.532C183.075,85.532 183.988,86.449 183.988,87.581Z" style="fill:rgb(0,113,173);fill-rule:nonzero;"/>
    </g>
    <g transform="matrix(1,0,0,1,-80,-56)">
        <path d="M160.324,76.377C160.324,78.738 158.415,80.652 156.061,80.652C153.707,80.652 151.799,78.738 151.799,76.377C151.799,74.017 153.707,72.103 156.061,72.103C158.415,72.103 160.324,74.017 160.324,76.377Z" style="fill:rgb(0,113,173);fill-rule:nonzero;"/>
    </g>
    <g transform="matrix(1,0,0,1,-80,-56)">
        <path d="M106.531,114.323C106.531,116.685 104.622,118.598 102.27,118.598C99.916,118.598 98.007,116.685 98.007,114.323C98.007,111.962 99.916,110.048 102.27,110.048C104.622,110.048 106.531,111.962 106.531,114.323Z" style="fill:rgb(255,197,23);fill-rule:nonzero;"/>
    </g>
    <g transform="matrix(1,0,0,1,-80,-56)">
        <path d="M178.384,112.625C178.384,115.342 176.188,117.544 173.48,117.544C170.771,117.544 168.575,115.342 168.575,112.625C168.575,109.909 170.771,107.706 173.48,107.706C176.188,107.706 178.384,109.909 178.384,112.625Z" style="fill:rgb(31,43,109);fill-rule:nonzero;"/>
    </g>
    <g transform="matrix(1,0,0,1,-80,-56)">
        <path d="M165.151,145.574C165.151,148.291 162.954,150.493 160.246,150.493C157.538,150.493 155.342,148.291 155.342,145.574C155.342,142.858 157.538,140.655 160.246,140.655C162.954,140.655 165.151,142.858 165.151,145.574Z" style="fill:rgb(196,2,8);fill-rule:nonzero;"/>
    </g>
    <g transform="matrix(1,0,0,1,-80,-56)">
        <path d="M166.162,95.682C166.162,98.399 163.967,100.601 161.257,100.601C158.549,100.601 156.354,98.399 156.354,95.682C156.354,92.965 158.549,90.763 161.257,90.763C163.967,90.763 166.162,92.965 166.162,95.682Z" style="fill:rgb(44,218,241);fill-rule:nonzero;"/>
    </g>
    <g transform="matrix(1,0,0,1,-80,-56)">
        <path d="M146.312,79.754C146.312,82.471 144.115,84.673 141.407,84.673C138.698,84.673 136.503,82.471 136.503,79.754C136.503,77.038 138.698,74.835 141.407,74.835C144.115,74.835 146.312,77.038 146.312,79.754Z" style="fill:rgb(11,110,172);fill-rule:nonzero;"/>
    </g>
    <g transform="matrix(1,0,0,1,-80,-56)">
        <path d="M116.73,73.742C116.73,76.458 114.533,78.661 111.825,78.661C109.116,78.661 106.92,76.458 106.92,73.742C106.92,71.025 109.116,68.823 111.825,68.823C114.533,68.823 116.73,71.025 116.73,73.742Z" style="fill:rgb(98,142,52);fill-rule:nonzero;"/>
    </g>
    <g transform="matrix(1,0,0,1,-80,-56)">
        <path d="M106.453,94.667C106.453,97.384 104.258,99.586 101.549,99.586C98.841,99.586 96.645,97.384 96.645,94.667C96.645,91.95 98.841,89.748 101.549,89.748C104.258,89.748 106.453,91.95 106.453,94.667Z" style="fill:rgb(255,195,31);fill-rule:nonzero;"/>
    </g>
    <g transform="matrix(1,0,0,1,-80,-56)">
        <path d="M97.968,118.168C97.968,120.884 95.772,123.087 93.064,123.087C90.355,123.087 88.16,120.884 88.16,118.168C88.16,115.453 90.355,113.249 93.064,113.249C95.772,113.249 97.968,115.453 97.968,118.168Z" style="fill:rgb(253,131,1);fill-rule:nonzero;"/>
    </g>
    <g transform="matrix(1,0,0,1,-80,-56)">
        <path d="M121.244,104.817C121.244,107.534 119.048,109.736 116.34,109.736C113.631,109.736 111.436,107.534 111.436,104.817C111.436,102.101 113.631,99.898 116.34,99.898C119.048,99.898 121.244,102.101 121.244,104.817Z" style="fill:rgb(98,142,52);fill-rule:nonzero;"/>
    </g>
    <g transform="matrix(1,0,0,1,-80,-56)">
        <path d="M119.766,134.799C119.766,137.515 117.57,139.718 114.861,139.718C112.153,139.718 109.956,137.515 109.956,134.799C109.956,132.083 112.153,129.88 114.861,129.88C117.57,129.88 119.766,132.083 119.766,134.799Z" style="fill:rgb(196,2,8);fill-rule:nonzero;"/>
    </g>
    <g transform="matrix(1,0,0,1,-80,-56)">
        <path d="M133.7,111.454C133.7,114.171 131.504,116.373 128.796,116.373C126.087,116.373 123.892,114.171 123.892,111.454C123.892,108.737 126.087,106.535 128.796,106.535C131.504,106.535 133.7,108.737 133.7,111.454Z" style="fill:rgb(123,162,6);fill-rule:nonzero;"/>
    </g>
    <g transform="matrix(1,0,0,1,-80,-56)">
        <path d="M99.291,130.895C99.291,133.612 97.096,135.814 94.388,135.814C91.678,135.814 89.483,133.612 89.483,130.895C89.483,128.179 91.678,125.976 94.388,125.976C97.096,125.976 99.291,128.179 99.291,130.895Z" style="fill:rgb(196,2,8);fill-rule:nonzero;"/>
    </g>
    <g transform="matrix(1,0,0,1,-80,-56)">
        <path d="M132.533,64.139C132.533,65.734 131.243,67.027 129.653,67.027C128.061,67.027 126.772,65.734 126.772,64.139C126.772,62.543 128.061,61.25 129.653,61.25C131.243,61.25 132.533,62.543 132.533,64.139Z" style="fill:rgb(195,215,136);fill-rule:nonzero;"/>
    </g>
    <g transform="matrix(1,0,0,1,-80,-56)">
        <path d="M144.909,63.826C144.909,65.552 143.515,66.949 141.796,66.949C140.076,66.949 138.682,65.552 138.682,63.826C138.682,62.102 140.076,60.703 141.796,60.703C143.515,60.703 144.909,62.102 144.909,63.826Z" style="fill:rgb(98,142,52);fill-rule:nonzero;"/>
    </g>
    <g transform="matrix(1,0,0,1,-80,-56)">
        <path d="M181.693,94.277C181.693,96.994 179.496,99.196 176.788,99.196C174.079,99.196 171.884,96.994 171.884,94.277C171.884,91.56 174.079,89.358 176.788,89.358C179.496,89.358 181.693,91.56 181.693,94.277Z" style="fill:rgb(0,161,202);fill-rule:nonzero;"/>
    </g>
    <g transform="matrix(1,0,0,1,-80,-56)">
        <path d="M153.862,106.925C153.862,109.642 151.667,111.844 148.959,111.844C146.249,111.844 144.054,109.642 144.054,106.925C144.054,104.209 146.249,102.006 148.959,102.006C151.667,102.006 153.862,104.209 153.862,106.925Z" style="fill:rgb(0,161,202);fill-rule:nonzero;"/>
    </g>
    <g transform="matrix(1,0,0,1,-80,-56)">
        <path d="M94.699,108.252C94.699,110.97 92.503,113.171 89.794,113.171C87.086,113.171 84.89,110.97 84.89,108.252C84.89,105.535 87.086,103.334 89.794,103.334C92.503,103.334 94.699,105.535 94.699,108.252Z" style="fill:rgb(255,197,23);fill-rule:nonzero;"/>
    </g>
    <g transform="matrix(1,0,0,1,-80,-56)">
        <path d="M126.148,143.231C126.148,145.948 123.953,148.15 121.244,148.15C118.536,148.15 116.341,145.948 116.341,143.231C116.341,140.515 118.536,138.312 121.244,138.312C123.953,138.312 126.148,140.515 126.148,143.231Z" style="fill:rgb(254,1,4);fill-rule:nonzero;"/>
    </g>
    <g transform="matrix(1,0,0,1,-80,-56)">
        <path d="M172.779,138.234C172.779,140.951 170.584,143.153 167.876,143.153C165.166,143.153 162.97,140.951 162.97,138.234C162.97,135.519 165.166,133.315 167.876,133.315C170.584,133.315 172.779,135.519 172.779,138.234Z" style="fill:rgb(190,118,211);fill-rule:nonzero;"/>
    </g>
    <g transform="matrix(1,0,0,1,-80,-56)">
        <path d="M115.484,144.402C115.484,147.12 113.288,149.321 110.58,149.321C107.87,149.321 105.675,147.12 105.675,144.402C105.675,141.685 107.87,139.484 110.58,139.484C113.288,139.484 115.484,141.685 115.484,144.402Z" style="fill:rgb(255,100,102);fill-rule:nonzero;"/>
    </g>
    <g transform="matrix(1,0,0,1,-80,-56)">
        <path d="M188.893,131.677C188.893,134.134 186.907,136.126 184.457,136.126C182.005,136.126 180.019,134.134 180.019,131.677C180.019,129.218 182.005,127.225 184.457,127.225C186.907,127.225 188.893,129.218 188.893,131.677Z" style="fill:rgb(196,2,8);fill-rule:nonzero;"/>
    </g>
    <g transform="matrix(1,0,0,1,-80,-56)">
        <path d="M191.93,113.367C191.93,116.084 189.734,118.285 187.026,118.285C184.316,118.285 182.121,116.084 182.121,113.367C182.121,110.649 184.316,108.448 187.026,108.448C189.734,108.448 191.93,110.649 191.93,113.367Z" style="fill:rgb(190,118,211);fill-rule:nonzero;"/>
    </g>
    <g transform="matrix(1,0,0,1,-80,-56)">
        <path d="M168.887,155.216C168.887,157.933 166.692,160.135 163.982,160.135C161.274,160.135 159.078,157.933 159.078,155.216C159.078,152.499 161.274,150.299 163.982,150.299C166.692,150.299 168.887,152.499 168.887,155.216Z" style="fill:rgb(255,6,5);fill-rule:nonzero;"/>
    </g>
    <g transform="matrix(1,0,0,1,-80,-56)">
        <path d="M158.534,85.61C158.534,88.326 156.337,90.53 153.629,90.53C150.92,90.53 148.725,88.326 148.725,85.61C148.725,82.894 150.92,80.691 153.629,80.691C156.337,80.691 158.534,82.894 158.534,85.61Z" style="fill:rgb(44,218,241);fill-rule:nonzero;"/>
    </g>
    <g transform="matrix(1,0,0,1,-80,-56)">
        <path d="M174.881,102.084C174.881,104.801 172.685,107.003 169.977,107.003C167.268,107.003 165.071,104.801 165.071,102.084C165.071,99.369 167.268,97.165 169.977,97.165C172.685,97.165 174.881,99.369 174.881,102.084Z" style="fill:rgb(0,161,202);fill-rule:nonzero;"/>
    </g>
    <g transform="matrix(1,0,0,1,-80,-56)">
        <path d="M140.862,69.838C140.862,72.555 138.666,74.757 135.958,74.757C133.25,74.757 131.054,72.555 131.054,69.838C131.054,67.121 133.25,64.919 135.958,64.919C138.666,64.919 140.862,67.121 140.862,69.838Z" style="fill:rgb(195,215,136);fill-rule:nonzero;"/>
    </g>
    <g transform="matrix(1,0,0,1,-80,-56)">
        <path d="M102.172,83.346C102.172,85.286 100.604,86.859 98.669,86.859C96.734,86.859 95.166,85.286 95.166,83.346C95.166,81.405 96.734,79.832 98.669,79.832C100.604,79.832 102.172,81.405 102.172,83.346Z" style="fill:rgb(254,197,14);fill-rule:nonzero;"/>
    </g>
    <g transform="matrix(1,0,0,1,-80,-56)">
        <path d="M116.886,94.979C116.886,97.696 114.689,99.898 111.981,99.898C109.272,99.898 107.077,97.696 107.077,94.979C107.077,92.262 109.272,90.06 111.981,90.06C114.689,90.06 116.886,92.262 116.886,94.979Z" style="fill:rgb(123,162,6);fill-rule:nonzero;"/>
    </g>
    <g transform="matrix(1,0,0,1,-80,-56)">
        <path d="M113.227,110.752C113.227,111.959 112.251,112.937 111.047,112.937C109.843,112.937 108.866,111.959 108.866,110.752C108.866,109.543 109.843,108.565 111.047,108.565C112.251,108.565 113.227,109.543 113.227,110.752Z" style="fill:rgb(254,197,14);fill-rule:nonzero;"/>
    </g>
    <g transform="matrix(1,0,0,1,-80,-56)">
        <path d="M90.496,125.039C90.496,126.247 89.518,127.225 88.316,127.225C87.112,127.225 86.135,126.247 86.135,125.039C86.135,123.833 87.112,122.853 88.316,122.853C89.518,122.853 90.496,123.833 90.496,125.039Z" style="fill:rgb(195,0,0);fill-rule:nonzero;"/>
    </g>
    <g transform="matrix(1,0,0,1,-80,-56)">
        <path d="M100.927,147.916C100.927,148.822 100.194,149.556 99.291,149.556C98.389,149.556 97.657,148.822 97.657,147.916C97.657,147.01 98.389,146.276 99.291,146.276C100.194,146.276 100.927,147.01 100.927,147.916Z" style="fill:rgb(255,100,102);fill-rule:nonzero;"/>
    </g>
    <g transform="matrix(1,0,0,1,-80,-56)">
        <path d="M131.52,101.069C131.52,103.786 129.325,105.988 126.616,105.988C123.908,105.988 121.712,103.786 121.712,101.069C121.712,98.352 123.908,96.152 126.616,96.152C129.325,96.152 131.52,98.352 131.52,101.069Z" style="fill:rgb(89,116,7);fill-rule:nonzero;"/>
    </g>
    <g transform="matrix(1,0,0,1,-80,-56)">
        <path d="M154.953,131.207C154.953,132.76 153.698,134.018 152.15,134.018C150.602,134.018 149.347,132.76 149.347,131.207C149.347,129.655 150.602,128.397 152.15,128.397C153.698,128.397 154.953,129.655 154.953,131.207Z" style="fill:rgb(106,10,120);fill-rule:nonzero;"/>
    </g>
    <g transform="matrix(1,0,0,1,-80,-56)">
        <path d="M148.531,155.724C148.531,156.694 147.746,157.48 146.778,157.48C145.811,157.48 145.026,156.694 145.026,155.724C145.026,154.753 145.811,153.967 146.778,153.967C147.746,153.967 148.531,154.753 148.531,155.724Z" style="fill:rgb(196,2,8);fill-rule:nonzero;"/>
    </g>
    <g transform="matrix(1,0,0,1,-80,-56)">
        <path d="M173.246,75.772C173.246,77.8 171.608,79.442 169.587,79.442C167.567,79.442 165.929,77.8 165.929,75.772C165.929,73.745 167.567,72.103 169.587,72.103C171.608,72.103 173.246,73.745 173.246,75.772Z" style="fill:rgb(0,113,173);fill-rule:nonzero;"/>
    </g>
    <g transform="matrix(1,0,0,1,-80,-56)">
        <path d="M164.373,127.264C164.373,128.494 163.378,129.49 162.153,129.49C160.928,129.49 159.934,128.494 159.934,127.264C159.934,126.036 160.928,125.039 162.153,125.039C163.378,125.039 164.373,126.036 164.373,127.264Z" style="fill:rgb(14,21,101);fill-rule:nonzero;"/>
    </g>
    <g transform="matrix(1,0,0,1,-80,-56)">
        <path d="M172.546,88.499C172.546,89.727 171.552,90.724 170.326,90.724C169.102,90.724 168.109,89.727 168.109,88.499C168.109,87.27 169.102,86.274 170.326,86.274C171.552,86.274 172.546,87.27 172.546,88.499Z" style="fill:rgb(28,40,109);fill-rule:nonzero;"/>
    </g>
    <g transform="matrix(1,0,0,1,-80,-56)">
        <path d="M186.558,91.895C186.558,93.125 185.564,94.12 184.34,94.12C183.114,94.12 182.12,93.125 182.12,91.895C182.12,90.667 183.114,89.67 184.34,89.67C185.564,89.67 186.558,90.667 186.558,91.895Z" style="fill:rgb(28,40,109);fill-rule:nonzero;"/>
    </g>
    <g transform="matrix(1,0,0,1,-80,-56)">
        <path d="M188.797,97.966C188.797,99.615 187.463,100.952 185.818,100.952C184.174,100.952 182.841,99.615 182.841,97.966C182.841,96.317 184.174,94.979 185.818,94.979C187.463,94.979 188.797,96.317 188.797,97.966Z" style="fill:rgb(106,10,120);fill-rule:nonzero;"/>
    </g>
    <g transform="matrix(1,0,0,1,-80,-56)">
        <path d="M163.827,102.67C163.827,103.684 163.008,104.505 161.996,104.505C160.987,104.505 160.168,103.684 160.168,102.67C160.168,101.656 160.987,100.835 161.996,100.835C163.008,100.835 163.827,101.656 163.827,102.67Z" style="fill:rgb(28,40,109);fill-rule:nonzero;"/>
    </g>
    <g transform="matrix(1,0,0,1,-80,-56)">
        <path d="M190.529,126.249C190.529,127.263 189.709,128.084 188.699,128.084C187.688,128.084 186.869,127.263 186.869,126.249C186.869,125.236 187.688,124.415 188.699,124.415C189.709,124.415 190.529,125.236 190.529,126.249Z" style="fill:rgb(255,100,102);fill-rule:nonzero;"/>
    </g>
    <g transform="matrix(1,0,0,1,-80,-56)">
        <path d="M180.252,147.252C180.252,148.266 179.434,149.088 178.423,149.088C177.413,149.088 176.594,148.266 176.594,147.252C176.594,146.239 177.413,145.417 178.423,145.417C179.434,145.417 180.252,146.239 180.252,147.252Z" style="fill:rgb(255,6,5);fill-rule:nonzero;"/>
    </g>
    <g transform="matrix(1,0,0,1,-80,-56)">
        <path d="M167.407,70.033C167.407,71.263 166.414,72.259 165.19,72.259C163.964,72.259 162.97,71.263 162.97,70.033C162.97,68.805 163.964,67.808 165.19,67.808C166.414,67.808 167.407,68.805 167.407,70.033Z" style="fill:rgb(0,161,202);fill-rule:nonzero;"/>
    </g>
</svg>
