<?xml version="1.0" standalone="no"?>
<!DOCTYPE svg PUBLIC "-//W3C//DTD SVG 20010904//EN"
 "http://www.w3.org/TR/2001/REC-SVG-20010904/DTD/svg10.dtd">
<svg version="1.0" xmlns="http://www.w3.org/2000/svg"
 width="1184.000000pt" height="1184.000000pt" viewBox="0 0 1184.000000 1184.000000"
 preserveAspectRatio="xMidYMid meet">
<metadata>
Created by potrace 1.14, written by Peter Selinger 2001-2017
</metadata>
<g transform="translate(0.000000,1184.000000) scale(0.100000,-0.100000)"
fill="#000000" stroke="none">
<path d="M5720 11464 c-34 -15 -89 -65 -91 -85 -2 -9 -5 -24 -9 -36 -6 -19 2
-71 15 -99 13 -28 85 -95 85 -78 0 3 6 2 13 -3 28 -21 112 -2 149 34 51 48 65
98 48 163 -11 39 -57 95 -86 103 -48 14 -92 15 -124 1z"/>
<path d="M6221 11458 c-119 -21 -203 -120 -204 -242 -1 -179 173 -298 338
-231 101 41 158 128 154 233 -3 80 -17 114 -77 177 -48 51 -133 77 -211 63z"/>
<path d="M5229 11411 c-77 -25 -144 -91 -158 -156 -11 -50 -3 -132 16 -170 53
-102 186 -154 286 -112 20 9 40 16 42 17 5 0 46 43 70 73 14 16 33 67 34 90 4
69 -1 104 -24 146 -15 29 -56 68 -99 95 -32 20 -127 30 -167 17z"/>
<path d="M6647 11363 c-40 -29 -56 -54 -63 -97 -14 -92 64 -177 157 -171 38 3
97 42 115 77 9 17 16 50 16 75 0 110 -136 181 -225 116z"/>
<path d="M4831 11309 c-41 -25 -61 -58 -63 -105 -3 -86 87 -150 167 -119 22 9
71 45 62 45 -3 0 0 15 8 34 11 25 12 42 4 69 -9 34 -58 86 -82 88 -7 1 -24 2
-39 3 -15 2 -41 -5 -57 -15z"/>
<path d="M7028 11289 c-41 -11 -94 -46 -113 -75 -29 -44 -45 -100 -32 -113 8
-8 8 -11 0 -11 -19 0 6 -74 38 -113 62 -75 176 -96 255 -46 71 44 107 135 86
217 -7 26 -17 49 -23 50 -5 2 -9 10 -9 17 0 17 -87 75 -114 76 -12 1 -30 2
-41 4 -11 1 -32 -2 -47 -6z"/>
<path d="M4545 11231 c-35 -15 -64 -55 -69 -95 -12 -99 96 -161 181 -103 18
12 33 30 33 39 0 9 4 19 9 22 11 7 -3 81 -19 101 -28 33 -97 51 -135 36z"/>
<path d="M5729 11120 c-110 -18 -232 -108 -279 -205 -81 -167 -51 -340 80
-466 78 -75 154 -104 265 -103 96 0 106 2 176 37 91 44 168 135 203 240 16 50
17 145 1 206 -52 201 -240 324 -446 291z"/>
<path d="M4233 11073 c-95 -49 -128 -145 -82 -239 11 -24 29 -46 40 -49 10 -4
19 -10 19 -15 0 -15 72 -30 115 -25 101 13 168 115 142 215 -15 56 -40 86 -94
113 -36 18 -105 18 -140 0z"/>
<path d="M7554 11081 c-3 -3 -9 -6 -12 -6 -15 -2 -56 -18 -70 -29 -44 -33 -92
-89 -98 -111 -3 -14 -9 -25 -13 -25 -14 0 -12 -138 3 -174 8 -20 13 -36 10
-36 -3 0 4 -10 16 -22 11 -12 20 -25 20 -29 0 -13 73 -62 118 -78 139 -50 298
33 339 179 11 36 4 138 -11 173 -40 93 -136 158 -239 162 -31 1 -60 -1 -63 -4z"/>
<path d="M6530 11053 c-53 -18 -141 -68 -169 -95 -62 -61 -132 -184 -114 -202
4 -3 2 -6 -3 -6 -10 0 -10 -137 -1 -176 10 -40 49 -124 58 -124 5 0 9 -5 9
-11 0 -20 82 -92 138 -122 28 -16 52 -26 52 -24 0 3 19 0 43 -7 33 -10 152
-14 152 -6 0 1 10 3 21 5 12 3 34 10 50 16 16 7 31 13 34 13 3 1 21 12 40 25
58 40 109 100 142 170 28 58 32 76 32 152 0 167 -75 287 -224 361 -57 27 -77
32 -155 34 -49 1 -97 0 -105 -3z"/>
<path d="M4781 11040 c-45 -11 -111 -41 -111 -52 0 -4 -4 -7 -9 -5 -19 5 -113
-98 -137 -150 -33 -73 -42 -120 -38 -195 5 -107 48 -199 127 -271 35 -32 113
-78 140 -83 4 -1 8 -2 10 -4 13 -11 161 -16 203 -6 84 18 196 101 243 179 48
80 68 205 46 301 -9 44 -53 127 -85 163 -45 50 -122 100 -181 117 -55 17 -151
19 -208 6z"/>
<path d="M7310 10957 c-30 -45 -57 -86 -59 -92 -2 -5 -7 -12 -11 -15 -9 -7
-70 -100 -70 -107 0 -3 -11 -21 -25 -39 -14 -18 -25 -37 -25 -43 0 -6 -4 -11
-9 -11 -5 0 -13 -10 -17 -22 -3 -13 -15 -34 -24 -48 -22 -31 -150 -251 -150
-257 0 -3 -9 -18 -21 -34 -11 -16 -18 -29 -14 -29 3 0 -6 -17 -20 -37 -14 -21
-25 -43 -25 -49 0 -7 -3 -14 -7 -16 -5 -1 -33 -52 -63 -113 -30 -60 -61 -118
-70 -129 -8 -10 -14 -21 -14 -25 2 -10 -30 -76 -38 -79 -5 -2 -8 -8 -8 -14 0
-5 -19 -49 -41 -97 -23 -47 -52 -110 -65 -138 -60 -133 -91 -202 -114 -258 -5
-11 -20 -46 -34 -78 -14 -32 -26 -59 -26 -61 0 -2 -10 -25 -22 -52 -12 -27
-23 -53 -24 -59 -2 -5 -38 -102 -82 -215 -75 -193 -89 -230 -94 -248 -1 -4
-12 -36 -25 -72 -14 -36 -31 -85 -39 -110 -8 -25 -18 -52 -21 -60 -3 -8 -7
-19 -8 -25 -2 -5 -14 -44 -28 -85 -14 -41 -42 -128 -62 -193 -20 -65 -38 -117
-40 -115 -3 2 -6 24 -9 48 -6 52 -12 83 -32 165 -8 33 -16 69 -19 80 -9 36
-78 229 -101 282 -12 28 -20 54 -16 57 3 3 0 6 -6 6 -7 0 -12 6 -12 13 0 14
-130 278 -188 382 -147 265 -329 541 -560 850 -58 77 -109 142 -113 143 -5 2
-9 10 -9 17 0 7 -3 15 -8 17 -4 2 -23 23 -42 48 -19 25 -37 47 -40 50 -3 3
-21 25 -40 50 -35 45 -74 92 -97 116 -7 7 -13 17 -13 23 0 6 -4 11 -9 11 -5 0
-28 26 -52 57 -24 31 -55 68 -69 82 -14 15 -47 53 -75 85 -123 145 -198 226
-209 226 -4 0 2 -12 13 -27 48 -63 131 -185 131 -193 0 -5 3 -10 8 -12 9 -4
159 -232 174 -264 6 -13 14 -24 18 -24 4 0 10 -8 13 -17 3 -10 47 -83 97 -163
49 -80 98 -162 107 -182 10 -21 21 -38 25 -38 5 0 8 -4 8 -10 0 -5 13 -31 28
-57 16 -26 46 -79 66 -118 21 -38 51 -92 66 -120 82 -148 262 -525 352 -735 6
-14 17 -37 24 -51 8 -15 15 -35 17 -45 2 -11 8 -28 14 -39 6 -11 16 -38 23
-60 7 -22 16 -44 20 -50 4 -5 10 -19 13 -30 3 -11 19 -57 35 -102 17 -46 28
-83 25 -83 -3 0 -1 -6 4 -12 12 -16 94 -270 107 -333 3 -11 16 -65 30 -120 14
-55 28 -116 31 -135 3 -19 8 -42 10 -50 4 -15 14 -67 20 -105 1 -11 5 -33 9
-50 3 -16 8 -55 11 -85 2 -30 7 -73 10 -95 12 -93 12 -142 -1 -195 -7 -31 -15
-68 -18 -81 -3 -13 -10 -44 -17 -69 -6 -25 -12 -54 -15 -65 -3 -19 -8 -39 -19
-92 -3 -13 -7 -33 -10 -45 -2 -13 -7 -34 -10 -48 -3 -14 -8 -36 -11 -50 -25
-118 -84 -441 -104 -571 -11 -74 -22 -144 -25 -156 -6 -35 -25 -165 -31 -208
-11 -90 -15 -122 -19 -155 -2 -19 -4 -35 -5 -35 -1 0 -3 -13 -4 -30 -2 -16 -6
-57 -10 -90 -12 -89 -14 -108 -15 -129 -1 -13 -19 6 -53 55 -28 41 -55 76 -60
77 -4 2 -8 8 -8 13 0 5 -8 19 -19 31 -164 198 -225 270 -256 303 -80 87 -212
219 -283 283 -41 37 -86 78 -101 92 -15 14 -54 48 -86 75 -102 85 -190 171
-345 334 -72 75 -239 287 -276 351 -10 16 -22 30 -26 30 -4 0 -8 4 -8 10 0 5
-28 53 -63 107 -35 54 -67 105 -70 113 -4 8 -15 29 -25 45 -63 103 -245 461
-267 525 -1 3 -12 28 -24 55 -13 28 -30 68 -39 90 -8 22 -22 49 -30 60 -12 18
-13 9 -8 -75 6 -102 8 -113 32 -235 37 -188 121 -445 176 -544 11 -19 22 -44
24 -54 2 -11 11 -28 19 -37 9 -10 17 -25 19 -33 1 -8 9 -26 19 -40 9 -15 17
-31 17 -36 0 -5 3 -11 8 -13 4 -1 16 -19 26 -38 29 -53 129 -205 138 -208 4
-2 8 -10 8 -17 0 -7 4 -15 8 -17 4 -1 29 -31 55 -65 26 -34 53 -68 60 -75 7
-7 43 -51 82 -98 38 -47 82 -98 97 -115 l27 -30 -22 -8 c-24 -10 -33 -11 -157
-23 -152 -16 -518 -10 -675 10 -16 3 -59 8 -95 12 -66 7 -95 11 -95 14 0 1
-16 3 -35 5 -45 3 -186 28 -290 50 -14 3 -41 8 -60 11 -19 4 -42 8 -50 10 -8
2 -49 11 -90 20 -72 15 -242 60 -343 89 -26 8 -45 10 -42 5 8 -13 245 -127
281 -136 16 -4 34 -10 39 -14 10 -8 74 -30 87 -30 4 0 28 -9 53 -20 25 -11 45
-17 45 -15 0 3 17 -2 38 -10 41 -16 140 -43 187 -52 17 -3 38 -9 47 -14 9 -5
21 -8 25 -7 4 1 35 -4 68 -11 33 -8 65 -14 70 -16 14 -3 86 -17 110 -21 37 -7
140 -23 195 -30 30 -4 64 -8 75 -9 35 -5 118 -14 180 -20 33 -3 78 -7 100 -9
73 -8 308 -18 434 -19 l124 -2 75 -90 c41 -49 78 -92 81 -95 3 -3 20 -23 37
-45 17 -22 53 -69 80 -105 87 -113 264 -378 337 -505 6 -11 26 -44 44 -72 18
-29 33 -55 33 -58 0 -2 34 -66 77 -142 148 -267 200 -376 196 -413 -24 -280
-23 -1332 2 -1700 3 -41 7 -111 10 -155 8 -138 15 -238 20 -300 3 -33 7 -83 9
-110 9 -105 26 -281 31 -320 2 -16 7 -59 10 -95 4 -36 9 -76 11 -90 2 -14 6
-47 9 -75 5 -47 8 -66 20 -170 2 -22 7 -53 9 -70 2 -16 7 -52 11 -80 3 -27 8
-60 10 -72 2 -12 9 -57 15 -100 14 -93 18 -118 20 -118 1 0 3 -11 4 -25 2 -14
6 -45 10 -70 4 -25 9 -56 11 -70 6 -40 36 -213 41 -240 2 -14 11 -62 19 -108
21 -116 23 -127 25 -127 1 0 3 -11 5 -25 2 -14 6 -38 10 -55 3 -16 7 -37 9
-45 3 -13 89 -15 697 -16 382 -1 698 1 702 3 4 3 4 10 -2 16 -5 7 -11 21 -13
32 -1 11 -5 22 -8 25 -3 3 -24 63 -48 135 -24 72 -47 137 -52 145 -4 9 -11 31
-15 50 -4 19 -10 40 -14 45 -3 6 -6 12 -7 15 -4 20 -18 67 -23 75 -3 6 -6 15
-7 20 -1 6 -21 72 -43 148 -23 75 -44 145 -46 155 -5 21 -41 146 -54 190 -5
17 -7 32 -4 32 3 0 1 6 -5 12 -5 7 -13 27 -16 43 -3 17 -17 75 -31 130 -14 55
-28 107 -30 115 -1 8 -10 42 -19 75 -8 33 -18 75 -21 94 -3 19 -8 38 -11 43
-3 5 -7 19 -9 31 -2 12 -13 65 -25 117 -11 52 -24 111 -27 130 -3 19 -9 42
-13 50 -4 8 -6 25 -5 37 1 13 -1 23 -5 23 -3 0 -6 8 -7 18 0 9 -3 27 -6 38 -3
12 -8 38 -11 58 -3 20 -17 91 -31 159 -13 67 -27 142 -30 166 -3 23 -7 46 -9
50 -3 4 -7 27 -10 52 -3 24 -10 69 -16 99 -11 57 -29 170 -36 230 -3 19 -7 46
-10 60 -8 40 -13 102 -8 97 3 -3 8 -20 11 -39 12 -78 80 -178 159 -234 38 -27
110 -55 154 -61 19 -3 44 -6 54 -7 11 -2 42 1 70 6 152 26 264 122 314 268 24
70 22 197 -4 255 -10 22 -17 43 -16 48 1 4 -2 7 -7 7 -5 0 -12 8 -15 18 -8 23
-72 93 -113 120 -17 13 -51 30 -75 39 -50 18 -208 33 -208 19 0 -5 -3 -7 -6
-4 -7 8 -91 -20 -124 -41 -123 -78 -191 -194 -194 -333 -1 -68 -13 -45 -21 41
-3 41 -8 78 -10 81 -3 4 -7 41 -11 82 l-6 75 88 129 c112 165 204 293 267 368
15 19 27 38 27 44 0 6 4 12 9 14 5 2 43 46 85 98 73 90 147 177 191 226 12 12
39 43 60 68 77 91 395 419 440 454 15 12 25 22 22 22 -4 0 12 18 36 39 23 22
83 79 133 128 50 48 155 149 234 223 189 179 469 458 550 548 112 126 135 152
248 292 51 63 101 124 110 135 30 37 299 400 318 430 10 17 24 36 31 43 7 7
13 17 13 21 0 4 9 19 20 32 32 40 34 42 65 91 17 27 33 48 38 48 4 0 7 5 7 11
0 12 60 103 72 107 4 2 8 9 8 15 0 6 18 37 40 68 22 32 40 62 40 68 0 6 5 11
10 11 6 0 10 7 10 15 0 8 5 15 10 15 6 0 10 7 10 15 0 8 4 15 8 15 5 0 16 15
25 33 10 17 27 48 38 67 l21 35 -27 -30 c-15 -16 -49 -55 -74 -84 -25 -30 -57
-67 -71 -82 -14 -15 -45 -50 -70 -79 -56 -65 -65 -75 -175 -195 -275 -301
-626 -652 -900 -900 -48 -44 -100 -91 -115 -105 -56 -51 -164 -145 -290 -254
-14 -12 -81 -68 -150 -125 -69 -57 -127 -107 -130 -110 -4 -5 -79 -65 -118
-94 -7 -6 -2 16 12 49 21 52 35 88 41 104 1 3 7 17 12 31 6 14 34 94 62 178
50 149 66 206 100 346 18 75 40 178 47 225 3 19 7 46 10 60 2 14 7 43 9 65 3
22 7 56 10 75 7 53 15 318 9 295 -10 -37 -45 -180 -50 -200 -2 -11 -13 -51
-24 -90 -12 -38 -23 -77 -25 -85 -4 -15 -54 -173 -82 -260 -8 -25 -16 -49 -17
-55 -1 -5 -8 -20 -14 -32 -7 -13 -10 -23 -6 -23 3 0 0 -7 -7 -17 -8 -9 -13
-17 -11 -17 2 -1 -2 -14 -8 -31 -6 -16 -22 -61 -37 -100 -14 -38 -39 -98 -54
-133 -16 -35 -29 -66 -29 -68 0 -3 -23 -53 -52 -112 -29 -59 -51 -110 -50
-114 1 -5 -3 -8 -8 -8 -6 0 -10 -4 -10 -9 0 -13 -85 -164 -138 -245 -50 -77
-58 -88 -84 -116 -9 -10 -15 -20 -12 -22 4 -5 -111 -128 -120 -128 -4 0 -17
-10 -30 -23 -12 -12 -40 -37 -62 -55 -222 -187 -554 -522 -600 -605 -6 -11
-14 -16 -16 -11 -8 13 -20 194 -34 504 -10 204 -11 1084 -3 1102 6 10 5 19 -1
23 -6 4 -8 10 -5 15 5 8 7 47 20 295 3 61 8 146 11 190 3 44 7 98 9 120 2 22
6 76 10 120 5 44 9 98 11 120 1 22 3 40 4 40 1 0 3 20 5 45 2 25 6 65 8 90 11
90 17 147 22 190 3 25 7 56 9 70 3 14 8 49 11 79 4 30 8 61 10 70 1 9 6 41 10
71 4 30 9 64 11 75 2 11 6 37 9 59 3 21 8 52 11 70 3 17 8 42 9 56 4 26 25
145 30 170 2 8 7 37 11 64 12 80 90 184 288 381 110 109 191 183 264 239 15
11 32 25 39 31 38 32 194 147 243 180 25 16 47 32 50 35 14 14 70 50 79 50 5
0 11 3 13 8 3 8 114 82 123 82 3 0 11 5 18 10 25 21 88 60 97 60 6 0 10 5 10
11 0 5 4 8 9 4 5 -3 12 -1 15 4 7 11 184 112 294 168 17 9 32 20 32 24 0 7
-66 -8 -85 -19 -5 -4 -17 -7 -25 -9 -63 -9 -529 -214 -550 -241 -3 -4 -27 -18
-55 -31 -27 -14 -59 -32 -70 -42 -11 -9 -30 -20 -42 -24 -13 -3 -23 -11 -23
-16 0 -5 -4 -9 -10 -9 -14 0 -193 -119 -306 -204 -23 -17 -55 -40 -70 -51 -15
-11 -42 -32 -60 -47 -17 -16 -34 -28 -38 -28 -3 0 -14 -8 -24 -17 -28 -27
-103 -88 -115 -92 -6 -2 -7 5 -3 20 4 13 9 33 10 44 2 11 5 21 6 23 1 1 3 10
4 20 1 9 5 26 9 37 3 11 8 31 11 45 2 14 14 61 26 105 12 44 24 94 27 110 3
17 10 36 15 43 6 7 8 15 5 18 -3 3 4 36 14 72 20 66 45 159 54 196 6 24 25 87
32 106 4 8 7 17 8 20 45 166 176 554 265 785 23 61 42 116 43 123 0 6 4 12 9
12 4 0 8 5 8 11 0 22 143 367 225 544 20 44 43 96 52 115 31 72 48 105 56 111
5 3 8 8 7 10 -1 2 2 12 6 22 16 42 -5 21 -56 -56z"/>
<path d="M8082 10887 c-42 -13 -95 -62 -112 -105 -29 -73 7 -178 75 -218 47
-29 142 -26 188 6 76 51 100 155 54 233 -44 75 -126 108 -205 84z"/>
<path d="M3802 10808 c-143 -22 -286 -154 -317 -294 -10 -43 -13 -157 -5 -174
4 -8 13 -33 20 -55 14 -47 63 -120 104 -155 37 -32 116 -82 116 -74 0 4 7 1
15 -6 8 -7 15 -9 15 -6 0 4 9 2 20 -4 20 -11 107 -14 173 -6 120 15 256 141
302 281 29 89 6 235 -50 320 -86 131 -236 197 -393 173z"/>
<path d="M7389 10556 c-2 -2 -22 -7 -44 -10 -41 -7 -121 -41 -141 -61 -7 -6
-25 -23 -40 -36 -78 -68 -115 -199 -91 -319 8 -46 64 -134 108 -174 71 -64
133 -85 239 -82 72 2 93 7 138 31 163 88 226 260 161 440 -7 19 -17 35 -21 35
-4 0 -8 6 -8 13 0 21 -76 92 -129 121 -26 14 -72 28 -102 32 -30 3 -57 8 -60
10 -3 2 -8 2 -10 0z"/>
<path d="M8372 10527 c-132 -58 -200 -197 -168 -347 7 -30 52 -106 81 -136 16
-16 95 -65 95 -59 0 3 9 1 21 -5 30 -17 107 -18 160 -4 176 45 268 249 186
412 -27 53 -68 102 -86 102 -5 0 -11 4 -13 9 -1 5 -21 17 -44 28 -61 29 -164
29 -232 0z"/>
<path d="M7968 10535 c-2 -2 -20 -5 -41 -8 -112 -15 -188 -144 -150 -256 64
-191 331 -178 381 19 22 89 -27 186 -112 224 -34 15 -73 26 -78 21z"/>
<path d="M5310 10409 c-101 -19 -215 -102 -262 -191 -27 -52 -49 -119 -42
-130 3 -4 2 -8 -3 -8 -9 0 -8 -90 1 -129 36 -155 128 -257 274 -301 134 -41
280 -8 374 84 91 89 129 181 124 306 -9 245 -223 414 -466 369z"/>
<path d="M3140 10356 c-65 -23 -114 -62 -148 -119 -19 -33 -26 -54 -36 -117
-5 -25 20 -118 39 -147 52 -79 128 -121 219 -121 34 0 66 3 71 6 6 4 16 7 23
8 28 5 88 53 116 92 75 108 58 259 -39 345 -58 53 -175 78 -245 53z"/>
<path d="M6153 10325 c-191 -45 -317 -207 -309 -398 3 -85 19 -134 63 -202 56
-88 141 -147 248 -171 60 -14 235 7 235 28 0 4 7 8 16 8 25 0 134 89 134 110
0 6 4 10 8 10 11 0 41 64 61 130 34 110 6 244 -70 344 -35 46 -127 116 -151
116 -8 0 -18 3 -22 7 -19 19 -157 30 -213 18z"/>
<path d="M8855 10266 c-41 -18 -67 -60 -70 -114 -3 -40 1 -48 36 -83 36 -36
44 -39 83 -36 54 4 94 29 111 70 43 103 -59 206 -160 163z"/>
<path d="M4338 10144 c-2 -1 -29 -5 -61 -8 -32 -2 -65 -10 -73 -17 -8 -6 -14
-9 -14 -5 0 3 -21 -6 -47 -21 -86 -48 -170 -156 -190 -245 -4 -18 -7 -70 -7
-114 0 -72 4 -90 33 -150 81 -166 256 -255 434 -220 41 7 148 61 177 88 113
105 159 252 123 391 -12 49 -50 126 -68 139 -5 4 -6 8 -2 8 19 0 -100 93 -147
115 -44 21 -150 47 -158 39z"/>
<path d="M8017 10094 c-1 -1 -22 -4 -47 -7 -154 -18 -303 -165 -326 -320 -20
-136 22 -270 110 -346 10 -9 26 -24 35 -33 8 -10 21 -18 27 -18 7 0 14 -5 16
-11 2 -5 10 -11 18 -12 8 -2 20 -5 25 -8 50 -30 233 -43 263 -19 1 2 5 3 10 4
68 17 160 88 207 160 146 223 30 529 -225 594 -45 11 -108 20 -113 16z"/>
<path d="M8917 10009 c-47 -11 -121 -44 -148 -67 -35 -29 -79 -72 -79 -77 0
-2 -11 -21 -25 -41 -22 -32 -42 -85 -51 -133 -3 -18 -6 -94 -4 -101 1 -3 4
-21 6 -40 7 -55 62 -159 108 -204 45 -44 123 -90 171 -102 53 -12 169 -11 214
3 80 24 151 75 219 158 27 32 50 98 61 175 20 136 -54 295 -174 373 -81 53
-206 76 -298 56z"/>
<path d="M2787 9934 c-1 -2 -18 -6 -37 -9 -147 -26 -249 -203 -204 -354 17
-58 75 -135 115 -151 16 -7 29 -16 29 -20 0 -8 43 -19 108 -26 51 -6 139 17
172 46 13 11 26 20 29 20 11 0 71 96 82 130 10 36 13 108 5 147 -21 100 -120
195 -221 210 -60 9 -75 10 -78 7z"/>
<path d="M3415 9853 c-82 -18 -76 -16 -120 -42 -75 -45 -148 -133 -171 -206
-18 -57 -25 -110 -21 -160 5 -62 27 -145 38 -145 4 0 9 -10 13 -23 9 -37 102
-124 166 -157 33 -17 62 -30 65 -29 3 0 18 -2 33 -5 63 -13 82 -14 87 -6 3 5
12 7 21 3 38 -14 163 38 225 94 41 37 106 123 93 123 -3 0 -2 6 4 13 17 20 39
120 36 165 -10 159 -79 270 -213 340 -88 46 -162 57 -256 35z"/>
<path d="M7114 9850 c-78 -20 -143 -59 -197 -119 -33 -36 -75 -112 -84 -151
-13 -50 -13 -144 -2 -196 7 -32 12 -62 11 -66 -1 -5 1 -8 6 -8 4 0 14 -15 21
-32 22 -50 109 -131 172 -161 46 -22 119 -40 164 -40 47 0 127 18 172 39 59
28 153 109 153 131 0 7 4 13 8 13 12 0 45 80 58 142 12 59 -2 187 -24 222 -4
6 -7 13 -7 16 -2 18 -61 93 -101 129 -97 85 -220 114 -350 81z"/>
<path d="M5804 9558 c-3 -4 -9 -6 -13 -4 -12 8 -124 -53 -159 -87 -43 -41 -92
-111 -92 -131 0 -9 -4 -16 -8 -16 -5 0 -9 -6 -9 -12 -1 -7 -6 -35 -11 -61 -40
-199 89 -397 293 -451 63 -16 171 -12 203 7 6 5 12 6 12 2 0 -15 104 50 149
93 145 140 157 384 25 534 -84 95 -187 140 -310 137 -41 -1 -77 -6 -80 -11z"/>
<path d="M9414 9465 c-27 -11 -103 -85 -88 -85 4 0 2 -6 -3 -12 -6 -7 -9 -34
-8 -60 4 -100 84 -168 181 -154 158 21 194 224 54 305 -32 19 -100 22 -136 6z"/>
<path d="M2414 9418 c-3 -4 -9 -6 -12 -4 -12 7 -79 -28 -116 -62 -104 -95
-107 -275 -5 -370 128 -120 332 -88 409 65 35 67 36 170 3 233 -30 56 -71 96
-126 120 -47 21 -144 33 -153 18z"/>
<path d="M8487 9406 c-48 -18 -74 -41 -98 -88 -33 -64 -23 -140 23 -193 47
-55 109 -71 194 -51 37 8 87 58 106 106 16 39 14 106 -4 127 -6 7 -7 13 -2 13
10 0 -34 47 -66 70 -36 26 -107 33 -153 16z"/>
<path d="M4654 9384 c-53 -12 -126 -41 -161 -65 -252 -174 -232 -535 38 -679
33 -17 59 -29 59 -26 0 3 12 1 27 -5 31 -12 154 -16 171 -5 7 4 21 9 32 11 38
7 111 49 149 85 46 43 91 104 91 122 0 8 4 18 9 24 30 33 36 195 10 269 -54
155 -196 261 -359 268 -32 2 -62 2 -66 1z"/>
<path d="M8125 9299 c-49 -24 -63 -37 -81 -71 -55 -107 20 -230 143 -230 144
0 206 200 87 281 -50 35 -104 42 -149 20z"/>
<path d="M8975 9162 c-2 -2 -9 -5 -17 -6 -7 -2 -26 -8 -43 -15 -108 -42 -193
-140 -233 -268 -11 -33 -13 -161 -3 -178 3 -5 7 -19 9 -30 10 -70 108 -190
187 -232 300 -156 636 98 571 432 -17 91 -109 212 -192 255 -16 8 -32 19 -36
25 -4 5 -8 7 -8 3 0 -4 -19 0 -42 8 -38 13 -181 18 -193 6z"/>
<path d="M9605 9136 c-43 -23 -85 -58 -85 -71 0 -7 -5 -15 -11 -17 -18 -6 -20
-120 -3 -154 35 -68 95 -103 171 -100 180 9 229 250 68 333 -36 19 -112 23
-140 9z"/>
<path d="M2965 9133 c-39 -8 -100 -35 -140 -61 -205 -139 -231 -427 -55 -603
76 -76 177 -117 280 -113 81 3 101 7 166 39 135 66 218 201 217 352 -1 113
-32 188 -112 275 -81 89 -229 135 -356 111z"/>
<path d="M6754 9128 c-73 -19 -148 -127 -138 -199 20 -137 125 -214 253 -185
79 18 144 105 143 192 -1 136 -124 227 -258 192z"/>
<path d="M3800 9106 c-68 -14 -158 -64 -205 -114 -30 -32 -85 -125 -92 -157
-1 -5 -6 -26 -11 -45 -30 -125 37 -296 149 -381 218 -165 537 -59 614 205 16
53 19 178 6 201 -3 6 -6 15 -7 20 -5 31 -48 106 -84 148 -93 105 -230 151
-370 123z"/>
<path d="M7715 9045 c-175 -54 -283 -199 -283 -379 0 -74 29 -186 49 -194 5
-2 9 -9 9 -16 0 -7 23 -35 51 -63 110 -110 257 -146 405 -99 82 26 196 119
210 174 3 12 10 22 14 22 14 0 40 115 40 176 0 156 -83 286 -225 354 -56 27
-81 33 -149 35 -45 1 -99 -3 -121 -10z"/>
<path d="M8417 9034 c-2 -2 -12 -5 -23 -7 -11 -1 -36 -12 -56 -24 -138 -82
-120 -297 29 -353 101 -37 202 2 248 95 51 103 11 220 -90 269 -29 14 -100 27
-108 20z"/>
<path d="M2235 8832 c-63 -6 -157 -50 -206 -94 -98 -91 -142 -228 -115 -362
15 -77 80 -171 157 -229 62 -46 202 -73 290 -54 46 9 134 57 167 90 56 56 62
65 89 124 38 82 43 185 14 271 -12 35 -27 71 -34 79 -16 21 -101 105 -118 118
-53 39 -167 65 -244 57z"/>
<path d="M5868 8733 c-21 -8 -38 -19 -38 -25 0 -5 -4 -7 -9 -4 -5 3 -14 -8
-21 -24 -7 -17 -16 -30 -21 -30 -4 0 -7 -31 -6 -68 3 -80 22 -112 83 -142 86
-42 176 -14 219 69 21 42 22 109 1 150 -36 69 -135 104 -208 74z"/>
<path d="M9765 8720 c-11 -4 -23 -6 -27 -3 -5 2 -14 1 -20 -4 -7 -4 -20 -8
-28 -10 -8 -1 -16 -7 -18 -12 -2 -6 -10 -11 -17 -11 -17 0 -80 -76 -91 -110
-14 -43 -15 -54 -14 -98 2 -67 64 -182 100 -182 5 0 10 -4 10 -8 0 -15 79 -36
134 -35 108 1 210 86 223 188 2 17 6 40 7 52 5 35 -29 118 -64 156 -35 39 -78
63 -130 72 -18 3 -36 7 -39 9 -3 2 -15 0 -26 -4z"/>
<path d="M7091 8638 c-45 -17 -100 -61 -137 -109 -9 -13 -18 -36 -31 -89 -9
-35 -5 -97 7 -120 7 -14 13 -27 13 -30 -2 -16 20 -51 52 -84 68 -70 168 -95
270 -66 68 19 148 98 168 166 40 138 -24 279 -151 329 -59 24 -131 25 -191 3z"/>
<path d="M4955 8614 c-27 -8 -54 -16 -60 -17 -50 -15 -137 -89 -177 -152 -52
-83 -72 -192 -54 -287 9 -47 54 -148 67 -148 5 0 9 -6 9 -13 0 -7 16 -26 36
-42 19 -17 41 -35 48 -41 18 -17 86 -50 121 -59 47 -12 164 -14 199 -3 88 28
162 78 224 153 23 27 63 122 65 154 1 17 4 31 7 31 3 0 4 15 3 32 -1 18 -2 33
-3 33 -1 0 -3 16 -5 37 -8 95 -73 203 -161 265 -84 60 -221 84 -319 57z"/>
<path d="M8437 8539 c-88 -20 -180 -81 -242 -161 -23 -29 -54 -106 -61 -153
-22 -141 15 -256 113 -352 193 -190 512 -130 626 117 24 52 31 81 33 147 4
111 -23 191 -94 273 -89 105 -243 158 -375 129z"/>
<path d="M3399 8403 c-116 -38 -173 -184 -115 -292 100 -188 379 -126 390 86
8 146 -135 252 -275 206z"/>
<path d="M9274 8359 c-67 -13 -136 -50 -190 -104 -100 -99 -135 -216 -111
-370 7 -48 60 -139 106 -185 150 -149 383 -157 535 -18 172 156 179 406 16
568 -98 98 -221 135 -356 109z"/>
<path d="M4165 8325 c-53 -14 -101 -30 -105 -35 -3 -3 -18 -12 -35 -20 -77
-39 -166 -164 -181 -255 -9 -52 -12 -137 -5 -150 3 -5 7 -18 8 -28 7 -45 61
-136 106 -181 45 -44 131 -93 182 -105 31 -6 157 -6 188 1 45 11 130 56 162
87 50 48 69 73 100 136 26 54 29 70 29 160 0 109 -15 154 -78 241 -41 57 -134
121 -201 139 -30 8 -151 15 -170 10z"/>
<path d="M2825 8295 c-64 -16 -115 -37 -115 -47 0 -4 -6 -8 -12 -8 -26 0 -108
-93 -137 -153 -40 -83 -50 -138 -38 -227 21 -164 143 -295 309 -332 29 -6 55
-11 58 -11 3 1 32 4 65 7 142 16 276 122 324 256 19 53 30 140 17 140 -6 0 -6
4 1 11 8 8 8 23 -2 55 -7 25 -13 47 -13 50 0 15 -56 113 -80 139 -38 41 -113
95 -124 89 -4 -3 -8 -1 -8 4 0 27 -170 45 -245 27z"/>
<path d="M7836 8247 c-35 -12 -76 -46 -76 -63 0 -7 -4 -14 -10 -16 -5 -1 -12
-23 -14 -48 -8 -87 60 -160 151 -160 49 0 121 53 131 98 16 71 -11 147 -61
174 -35 18 -90 25 -121 15z"/>
<path d="M6716 8139 c-186 -59 -300 -257 -264 -455 17 -91 110 -219 191 -260
97 -51 223 -64 312 -33 130 44 237 160 264 288 12 57 7 171 -10 202 -7 13 -11
25 -10 27 1 1 -7 22 -18 45 -37 76 -150 168 -236 192 -56 16 -169 13 -229 -6z"/>
<path d="M9950 8149 c-173 -33 -225 -239 -89 -353 54 -46 144 -55 208 -22 123
64 149 234 49 322 -27 24 -78 56 -78 50 0 -3 -12 -1 -27 3 -16 4 -44 4 -63 0z"/>
<path d="M7387 8136 c-86 -31 -143 -104 -151 -193 -10 -130 108 -245 237 -230
60 6 90 21 132 62 46 47 58 75 61 149 4 91 -39 163 -120 200 -51 24 -112 29
-159 12z"/>
<path d="M2088 8055 c-2 -2 -21 -5 -43 -8 -150 -19 -272 -130 -322 -292 -11
-33 -10 -169 1 -200 48 -136 135 -225 261 -270 43 -16 145 -21 193 -10 12 3
30 7 41 9 44 10 122 59 165 103 91 93 127 216 103 347 -17 96 -63 170 -150
243 -24 20 -90 50 -132 61 -44 11 -112 21 -117 17z"/>
<path d="M3635 7990 c-3 -5 -12 -7 -19 -4 -28 11 -96 -40 -124 -93 -6 -10 -9
-44 -7 -76 2 -45 9 -63 31 -90 102 -120 291 -46 285 110 -1 51 -40 114 -81
134 -43 20 -79 28 -85 19z"/>
<path d="M7897 7914 c-1 -2 -18 -6 -36 -9 -80 -14 -190 -92 -238 -169 -39 -61
-70 -166 -65 -221 12 -136 61 -231 156 -303 156 -120 372 -106 510 31 57 57
105 143 110 199 2 19 5 39 8 44 6 10 3 58 -7 119 -10 57 -60 146 -111 198 -44
44 -127 92 -175 103 -28 6 -147 12 -152 8z"/>
<path d="M5140 7788 c-41 -10 -109 -38 -129 -53 -64 -47 -137 -138 -151 -187
-1 -4 -8 -27 -15 -51 -54 -181 62 -398 250 -465 22 -8 73 -16 113 -18 216 -9
393 152 406 367 13 215 -154 403 -367 413 -40 2 -88 -1 -107 -6z"/>
<path d="M8740 7698 c-71 -11 -147 -47 -200 -94 -48 -44 -107 -131 -115 -171
-14 -67 -21 -121 -19 -136 1 -9 5 -35 8 -58 9 -62 49 -143 98 -195 45 -48 131
-104 161 -104 9 0 17 -4 17 -9 0 -4 11 -7 25 -6 14 2 27 0 29 -4 6 -9 151 0
151 8 0 2 8 4 18 6 34 6 92 37 134 72 110 89 163 242 133 386 -31 149 -163
279 -307 302 -70 12 -73 12 -133 3z"/>
<path d="M9837 7644 c-2 -2 -20 -6 -41 -10 -109 -17 -233 -124 -277 -239 -20
-52 -22 -58 -25 -137 -2 -58 3 -91 18 -135 12 -32 25 -59 29 -61 5 -2 9 -9 9
-15 0 -12 81 -101 111 -122 35 -25 108 -57 118 -51 6 4 11 3 11 -2 0 -5 21
-10 46 -11 26 0 50 -3 53 -6 14 -8 120 22 173 49 66 34 104 68 146 131 55 83
78 205 57 300 -16 76 -101 214 -132 215 -6 0 -13 4 -15 8 -7 16 -65 50 -113
66 -45 14 -159 28 -168 20z"/>
<path d="M3777 7633 c-4 -4 -25 -9 -48 -12 -17 -3 -71 -63 -84 -95 -73 -174
146 -321 279 -189 87 88 61 237 -49 280 -35 14 -91 23 -98 16z"/>
<path d="M7283 7610 c-139 -66 -105 -287 47 -303 120 -14 209 92 179 212 -10
38 -64 89 -108 101 -50 14 -70 12 -118 -10z"/>
<path d="M3023 7505 c-23 -7 -45 -10 -48 -7 -3 3 -5 1 -5 -5 0 -6 -10 -13 -23
-17 -53 -13 -142 -113 -166 -187 -11 -34 -23 -101 -21 -124 3 -57 6 -75 11
-75 3 0 6 -6 6 -13 0 -7 11 -35 24 -61 31 -63 114 -137 181 -161 51 -18 172
-28 193 -16 6 3 16 6 23 7 31 5 117 58 148 92 19 20 47 62 62 92 23 48 27 67
27 145 0 77 -4 98 -27 145 -38 81 -92 132 -174 167 -62 27 -154 35 -211 18z"/>
<path d="M4189 7463 c-34 -13 -77 -34 -95 -48 -43 -33 -94 -84 -94 -95 0 -5
-6 -15 -13 -22 -36 -38 -51 -101 -52 -213 0 -80 3 -97 31 -155 94 -196 322
-281 514 -193 92 43 192 147 205 214 2 11 7 24 10 29 16 26 21 134 10 195 -9
44 -49 129 -82 170 -35 44 -114 99 -173 121 -74 26 -186 25 -261 -3z"/>
<path d="M6570 7360 c0 -4 -10 -5 -23 -3 -27 5 -100 -27 -138 -61 -38 -33 -80
-110 -82 -150 -1 -20 -5 -36 -9 -36 -4 0 -5 -6 -3 -12 2 -7 7 -26 10 -43 3
-16 7 -35 8 -40 8 -34 64 -108 100 -132 60 -40 97 -51 164 -48 62 3 119 26
164 67 30 26 74 88 63 88 -3 0 0 7 7 16 15 18 23 164 10 164 -5 0 -11 13 -14
30 -8 37 -69 106 -118 130 -48 25 -139 45 -139 30z"/>
<path d="M1782 7273 c-37 -18 -81 -67 -83 -91 -1 -9 -3 -28 -4 -41 -6 -60 51
-127 117 -138 17 -2 49 2 72 11 82 32 113 130 65 201 -23 33 -85 73 -96 61 -3
-3 -13 -1 -22 4 -11 5 -28 3 -49 -7z"/>
<path d="M7208 7265 c-2 -2 -16 -5 -33 -8 -123 -17 -250 -124 -294 -247 -24
-67 -30 -146 -16 -220 8 -45 49 -133 70 -150 8 -7 15 -17 15 -23 0 -12 18 -27
85 -71 58 -39 114 -59 170 -62 22 -2 42 -3 45 -5 3 -1 9 -1 13 0 5 1 21 3 35
5 120 15 220 82 294 197 45 70 58 236 24 327 -43 117 -159 221 -276 247 -37 8
-127 15 -132 10z"/>
<path d="M2239 7237 c-157 -54 -260 -196 -262 -356 -1 -111 5 -132 70 -245 18
-31 93 -95 138 -118 60 -31 123 -45 190 -41 88 4 85 3 153 34 65 29 172 125
172 154 0 8 4 15 8 15 17 0 47 125 46 195 -1 101 -48 215 -114 271 -14 12 -36
31 -49 43 -39 34 -130 63 -211 68 -60 3 -88 -1 -141 -20z"/>
<path d="M8170 7121 c0 -3 -24 -7 -54 -7 -97 -3 -222 -88 -282 -194 -14 -25
-28 -53 -30 -63 -2 -10 -6 -28 -10 -39 -21 -68 -8 -177 31 -260 96 -202 352
-282 545 -170 210 123 259 393 108 590 -22 28 -44 52 -47 52 -4 0 -16 8 -27
18 -22 21 -104 57 -152 67 -51 11 -82 13 -82 6z"/>
<path d="M4930 6951 c-111 -40 -193 -111 -237 -207 -52 -115 -52 -220 0 -336
12 -27 25 -48 29 -48 5 0 8 -6 8 -13 0 -23 87 -95 154 -127 176 -84 391 -19
495 150 17 28 28 50 25 50 -4 0 -1 6 5 14 26 32 35 166 15 241 -29 115 -129
228 -235 267 -71 27 -198 31 -259 9z"/>
<path d="M9457 6944 c-3 -3 -32 -7 -65 -9 -78 -3 -171 -47 -234 -109 -27 -26
-48 -51 -48 -56 0 -5 -6 -15 -13 -22 -43 -42 -67 -224 -41 -301 7 -20 14 -41
15 -45 5 -27 46 -89 87 -131 50 -51 136 -99 185 -103 16 -1 30 -5 33 -9 6 -11
138 0 181 15 127 45 236 166 259 288 10 56 11 131 2 168 -5 19 -10 40 -11 46
-2 7 -7 18 -13 25 -5 8 -18 31 -29 52 -39 77 -164 166 -253 180 -17 3 -35 8
-40 11 -5 3 -12 3 -15 0z"/>
<path d="M3385 6863 c-11 -2 -27 -7 -35 -10 -8 -3 -18 -5 -22 -5 -5 1 -8 -3
-8 -10 0 -6 -3 -8 -6 -5 -11 11 -114 -72 -114 -92 0 -6 -4 -11 -9 -11 -18 0
-52 -102 -55 -166 -5 -98 25 -174 95 -242 48 -47 113 -81 172 -88 23 -3 47 -7
54 -9 6 -2 14 -1 17 2 3 4 16 8 28 9 37 6 51 10 90 26 42 19 138 111 138 133
0 8 4 15 8 15 15 0 31 85 28 155 -5 139 -93 250 -231 293 -33 9 -118 13 -150
5z"/>
<path d="M9994 6806 c-99 -36 -153 -134 -129 -236 40 -178 285 -207 368 -44
79 154 -78 338 -239 280z"/>
<path d="M2835 6725 c-111 -60 -119 -208 -15 -280 43 -29 101 -36 152 -16 24
9 65 51 85 87 13 25 11 96 -5 136 -28 69 -148 110 -217 73z"/>
<path d="M6567 6654 c-1 -1 -18 -4 -37 -7 -122 -17 -239 -107 -292 -225 -50
-109 -43 -256 17 -357 26 -45 98 -125 111 -125 4 0 15 -6 23 -13 34 -29 145
-61 206 -60 63 2 127 18 176 44 58 31 129 91 129 109 0 5 3 10 8 10 6 0 56 85
58 100 0 3 4 23 9 45 45 218 -90 427 -305 472 -21 4 -100 10 -103 7z"/>
<path d="M1914 6477 c-70 -41 -96 -82 -100 -157 -2 -46 2 -62 24 -95 48 -69
130 -98 207 -72 45 15 102 80 110 125 20 118 -56 212 -170 212 -27 -1 -59 -6
-71 -13z"/>
<path d="M7214 6430 c-51 -24 -78 -49 -98 -89 -72 -137 32 -298 187 -289 31 1
57 7 57 12 0 5 3 6 6 3 10 -9 60 29 90 69 21 27 27 48 29 95 4 71 -5 103 -43
145 -57 66 -154 89 -228 54z"/>
<path d="M9962 6355 c-60 -26 -90 -71 -89 -135 0 -56 26 -100 74 -127 120 -66
251 53 202 184 -26 71 -116 108 -187 78z"/>
<path d="M7844 6309 c-3 -5 -13 -9 -23 -9 -23 0 -89 -71 -95 -102 -21 -95 4
-165 73 -209 58 -37 142 -35 194 5 50 38 81 105 74 162 -5 52 -43 112 -87 137
-32 19 -127 30 -136 16z"/>
<path d="M8918 6275 c-2 -2 -27 -6 -57 -9 -30 -4 -61 -12 -69 -19 -8 -6 -17
-11 -19 -9 -9 7 -75 -34 -115 -71 -92 -89 -126 -173 -124 -302 2 -67 7 -92 33
-147 48 -102 150 -192 243 -214 85 -21 216 -18 245 5 5 5 21 12 35 16 24 7 86
52 123 88 27 27 85 137 93 177 11 60 11 113 -2 175 -26 126 -105 221 -227 275
-37 16 -152 41 -159 35z"/>
<path d="M2446 6242 c-5 -4 -47 -12 -78 -14 -16 -1 -28 -5 -28 -8 0 -4 -6 -7
-13 -7 -19 0 -118 -67 -146 -99 -33 -38 -78 -117 -85 -150 -13 -57 -18 -89
-18 -99 8 -143 44 -228 129 -305 30 -28 61 -50 68 -50 7 0 15 -4 17 -10 5 -16
128 -46 180 -44 61 2 120 13 136 26 6 6 12 8 12 5 0 -9 44 16 93 54 140 105
188 311 112 474 -29 62 -132 175 -160 175 -8 0 -15 4 -15 8 0 7 -61 29 -106
37 -10 2 -19 4 -19 5 0 3 -77 5 -79 2z"/>
<path d="M5166 6129 c-27 -10 -64 -35 -82 -55 -117 -127 -22 -336 151 -329
177 6 257 215 130 341 -28 28 -83 56 -98 51 -7 -2 -21 -1 -32 3 -13 5 -39 1
-69 -11z"/>
<path d="M9634 6139 c-2 -4 -12 -8 -22 -7 -100 1 -242 -122 -273 -236 -15 -55
-19 -153 -7 -191 5 -16 11 -38 13 -47 8 -36 71 -118 116 -153 72 -54 136 -75
227 -71 98 4 174 37 238 103 73 74 98 139 99 248 0 77 -4 98 -26 145 -23 49
-50 88 -78 114 -35 32 -52 44 -96 64 -49 24 -182 45 -191 31z"/>
<path d="M7044 6039 c-3 -5 -10 -7 -15 -3 -11 6 -72 -30 -101 -60 -39 -42 -60
-96 -58 -151 3 -77 15 -108 64 -158 70 -73 163 -88 259 -42 79 37 125 118 121
210 -5 117 -93 204 -211 210 -29 2 -56 -1 -59 -6z"/>
<path d="M3180 6006 c-19 -6 -39 -13 -45 -15 -36 -9 -101 -51 -135 -87 -149
-159 -152 -393 -7 -547 42 -43 137 -106 137 -90 0 4 4 3 8 -3 17 -25 147 -36
230 -20 124 24 247 143 285 273 22 72 13 231 -14 258 -5 5 -9 17 -9 27 0 10
-4 18 -9 18 -5 0 -12 8 -15 18 -10 31 -116 131 -146 138 -3 0 -18 7 -35 14
-46 20 -54 22 -135 25 -43 2 -90 -2 -110 -9z"/>
<path d="M4017 5919 c-144 -34 -261 -157 -294 -309 -17 -80 7 -207 53 -280 43
-69 120 -134 189 -161 82 -31 217 -30 290 2 151 67 235 191 241 352 3 79 -17
175 -40 189 -6 4 -7 8 -3 8 17 0 -56 87 -111 132 -79 64 -216 93 -325 67z"/>
<path d="M6550 5748 c-66 -11 -160 -61 -209 -110 -41 -42 -96 -139 -106 -188
-7 -33 -8 -140 -1 -165 33 -130 89 -205 199 -269 53 -32 70 -36 163 -43 159
-12 303 71 372 217 18 36 35 90 38 120 4 30 8 58 11 63 2 4 0 7 -5 7 -6 0 -8
8 -5 18 6 26 -33 138 -67 186 -34 50 -107 115 -137 122 -13 4 -23 10 -23 15 0
5 -3 8 -7 7 -5 -1 -27 4 -51 11 -56 16 -115 19 -172 9z"/>
<path d="M8328 5655 c-2 -2 -21 -5 -43 -8 -56 -8 -87 -18 -106 -33 -9 -8 -18
-12 -21 -9 -2 3 -32 -20 -65 -50 -134 -121 -172 -305 -95 -465 30 -64 110
-148 164 -173 21 -10 40 -18 43 -18 2 0 19 -6 37 -13 72 -29 190 -18 287 26
49 22 137 106 161 154 8 16 19 32 25 36 5 4 7 8 4 8 -4 0 1 28 10 63 31 116
-5 258 -86 348 -35 39 -123 106 -123 94 0 -3 -10 1 -22 9 -13 8 -26 15 -30 16
-5 0 -9 0 -10 1 -23 7 -126 18 -130 14z"/>
<path d="M9157 5495 c-26 -7 -49 -12 -50 -12 -1 0 -22 -10 -46 -22 -51 -26
-141 -107 -141 -127 0 -8 -4 -14 -8 -14 -11 0 -30 -40 -47 -98 -13 -42 -14
-174 -2 -219 21 -80 132 -223 173 -223 8 0 14 -4 14 -9 0 -30 176 -63 255 -47
71 14 85 18 85 25 0 4 6 8 13 8 21 0 102 59 131 95 14 18 31 39 36 45 22 26
52 110 58 163 35 266 -218 499 -471 435z"/>
<path d="M2584 5355 c-78 -25 -115 -46 -169 -98 -59 -57 -96 -123 -115 -205
-13 -54 -8 -158 9 -189 5 -10 10 -21 10 -25 4 -18 33 -81 44 -95 44 -53 101
-99 157 -126 59 -28 74 -31 160 -32 l96 0 -22 -32 c-41 -60 -15 -149 52 -182
32 -16 105 -16 115 0 3 6 10 11 15 12 23 4 55 58 56 95 1 67 -36 116 -103 137
-24 8 -37 14 -28 14 30 2 111 73 149 132 102 158 80 359 -54 491 -44 44 -146
108 -146 93 0 -3 -10 0 -22 6 -30 16 -156 18 -204 4z"/>
<path d="M4570 5253 c-14 -2 -32 -7 -40 -10 -8 -3 -19 -6 -25 -5 -29 4 -184
-101 -185 -124 0 -7 -7 -14 -15 -18 -8 -3 -15 -11 -15 -17 0 -7 -6 -20 -13
-28 -37 -45 -58 -170 -43 -261 12 -78 70 -177 132 -228 89 -74 218 -109 314
-87 14 3 37 7 52 10 43 8 129 62 173 109 77 82 111 181 102 301 -6 90 -49 184
-110 245 -41 40 -154 106 -164 96 -4 -3 -11 -2 -17 4 -13 10 -106 18 -146 13z"/>
<path d="M3777 5164 c-2 -3 -26 -6 -53 -8 -54 -4 -113 -23 -160 -52 -36 -22
-104 -81 -104 -89 0 -4 -11 -21 -24 -38 -20 -27 -34 -58 -42 -89 -1 -5 -3 -9
-4 -10 -11 -11 -15 -153 -6 -198 7 -39 30 -94 44 -108 6 -7 12 -17 12 -22 0
-5 22 -30 49 -57 190 -189 505 -140 627 98 29 58 36 87 39 169 6 189 -120 348
-312 393 -34 8 -64 13 -66 11z"/>
<path d="M7611 5043 c-67 -24 -104 -48 -159 -104 -29 -29 -72 -97 -78 -121 -1
-5 -2 -9 -4 -10 -7 -10 -13 -55 -16 -126 -6 -165 74 -294 226 -365 57 -27 76
-31 155 -31 65 0 104 5 140 19 112 42 201 135 237 249 17 50 22 197 9 225 -4
9 -20 41 -35 72 -84 174 -292 258 -475 192z"/>
<path d="M6309 4938 c-121 -31 -132 -202 -17 -246 103 -39 203 57 169 161 -21
63 -89 101 -152 85z"/>
<path d="M8532 4869 c-76 -21 -158 -80 -207 -147 -19 -26 -35 -51 -35 -57 0
-5 -7 -23 -15 -39 -8 -15 -13 -32 -10 -36 3 -5 1 -11 -4 -15 -6 -3 -9 -40 -6
-88 4 -89 6 -105 18 -124 5 -7 5 -13 0 -13 -4 0 -3 -4 2 -8 6 -4 18 -23 28
-42 10 -19 30 -49 45 -65 30 -34 112 -100 112 -91 0 4 10 0 23 -8 23 -15 59
-25 112 -31 17 -2 32 -4 35 -5 3 -1 8 -2 12 -1 4 0 27 3 50 5 57 6 158 43 158
58 0 5 6 8 14 8 16 0 92 80 108 115 6 14 14 25 18 25 11 0 40 111 43 162 9
126 -56 264 -159 338 -99 70 -225 92 -342 59z"/>
<path d="M3085 4822 c-33 -21 -62 -52 -49 -52 5 0 3 -4 -4 -9 -17 -11 -18 -91
-1 -122 34 -64 105 -90 179 -65 28 10 82 65 75 77 -3 4 -1 10 4 13 5 4 8 19 6
34 -2 15 -4 34 -4 43 -1 9 -17 34 -36 54 -30 33 -41 39 -87 42 -40 3 -61 -1
-83 -15z"/>
<path d="M9127 4668 c-34 -17 -69 -59 -74 -88 -15 -86 16 -146 90 -175 36 -14
51 -15 85 -5 139 37 149 220 16 276 -41 17 -73 15 -117 -8z"/>
<path d="M4189 4507 c-122 -56 -97 -231 37 -250 55 -8 128 42 139 95 16 72
-30 148 -96 162 -40 8 -48 7 -80 -7z"/>
<path d="M3260 4467 c-3 -3 -19 -7 -36 -10 -42 -7 -82 -29 -127 -72 -110 -104
-108 -296 4 -400 57 -53 118 -77 193 -76 211 1 344 225 245 411 -19 37 -63 90
-74 90 -4 0 -19 8 -33 18 -15 11 -38 22 -52 26 -35 10 -115 18 -120 13z"/>
<path d="M4727 4420 c-257 -82 -363 -383 -210 -602 134 -194 421 -223 590 -59
156 152 162 396 14 551 -107 111 -256 153 -394 110z"/>
<path d="M7060 4388 c-101 -38 -176 -107 -223 -208 -49 -103 -47 -234 6 -340
6 -14 16 -28 22 -32 5 -4 7 -8 3 -8 -4 0 13 -23 39 -50 89 -96 231 -142 358
-118 183 36 317 198 316 385 0 75 -6 101 -36 168 -39 90 -152 187 -245 212
-60 16 -184 11 -240 -9z"/>
<path d="M3863 4299 c-5 -5 -17 -10 -28 -12 -32 -5 -97 -43 -132 -77 -203
-194 -156 -523 92 -644 150 -74 332 -42 450 78 27 28 68 83 71 96 0 3 6 18 13
34 46 111 34 249 -32 352 -49 78 -98 116 -227 174 -22 10 -197 9 -207 -1z"/>
<path d="M7975 4292 c-3 -3 -15 -6 -28 -8 -44 -4 -139 -58 -184 -103 -70 -72
-123 -197 -117 -276 10 -120 34 -184 94 -258 108 -129 306 -173 461 -100 216
101 294 367 167 567 -50 78 -137 144 -222 167 -42 11 -163 19 -171 11z"/>
<path d="M8566 4051 c-4 -6 -11 -9 -15 -6 -5 2 -17 -6 -29 -18 -64 -68 -46
-178 36 -212 47 -20 81 -19 119 5 71 43 84 144 25 203 -23 23 -42 31 -80 35
-31 3 -52 0 -56 -7z"/>
<path d="M6647 4004 c-2 -3 -15 -7 -27 -9 -32 -6 -77 -52 -90 -90 -31 -93 49
-193 144 -181 58 8 99 40 123 96 13 32 -5 108 -33 138 -25 27 -104 58 -117 46z"/>
<path d="M4402 3609 c-100 -48 -148 -151 -122 -259 24 -100 129 -176 229 -166
82 8 138 45 186 121 25 40 27 146 3 195 -55 112 -187 161 -296 109z"/>
<path d="M7330 3600 c-108 -30 -175 -112 -179 -220 -5 -132 97 -237 237 -244
17 -1 32 2 32 7 0 4 4 6 8 3 14 -9 89 32 122 65 111 117 70 314 -78 376 -40
16 -108 23 -142 13z"/>
<path d="M4935 3574 c-14 -7 -25 -11 -25 -8 0 8 -52 -31 -83 -61 -15 -15 -34
-42 -42 -59 -14 -27 -19 -46 -30 -116 -4 -28 24 -112 49 -149 51 -74 129 -113
218 -110 120 5 211 79 242 196 11 42 12 66 2 123 -4 29 -38 89 -65 118 -62 64
-202 99 -266 66z"/>
<path d="M7722 3518 c-45 -22 -70 -67 -67 -120 3 -51 28 -86 77 -108 65 -29
133 -8 164 51 60 118 -56 236 -174 177z"/>
</g>
</svg>
